G04 #@! TF.FileFunction,Legend,Bot*
%FSLAX46Y46*%
G04 Gerber Fmt 4.6, Leading zero omitted, Abs format (unit mm)*
G04 Created by KiCad (PCBNEW 4.0.0-rc1-stable) date 17/09/2017 11:41:04*
%MOMM*%
G01*
G04 APERTURE LIST*
%ADD10C,0.076200*%
%ADD11C,0.127000*%
%ADD12C,0.120000*%
G04 APERTURE END LIST*
D10*
D11*
X160110714Y-112180914D02*
X160473571Y-112180914D01*
X160473571Y-111418914D01*
X159747857Y-112180914D02*
X159820429Y-112144629D01*
X159856714Y-112108343D01*
X159893000Y-112035771D01*
X159893000Y-111818057D01*
X159856714Y-111745486D01*
X159820429Y-111709200D01*
X159747857Y-111672914D01*
X159639000Y-111672914D01*
X159566429Y-111709200D01*
X159530143Y-111745486D01*
X159493857Y-111818057D01*
X159493857Y-112035771D01*
X159530143Y-112108343D01*
X159566429Y-112144629D01*
X159639000Y-112180914D01*
X159747857Y-112180914D01*
X159276143Y-111672914D02*
X158985857Y-111672914D01*
X159167285Y-111418914D02*
X159167285Y-112072057D01*
X159131000Y-112144629D01*
X159058428Y-112180914D01*
X158985857Y-112180914D01*
X158405285Y-111672914D02*
X158405285Y-112180914D01*
X158731856Y-111672914D02*
X158731856Y-112072057D01*
X158695571Y-112144629D01*
X158622999Y-112180914D01*
X158514142Y-112180914D01*
X158441571Y-112144629D01*
X158405285Y-112108343D01*
X158078713Y-112144629D02*
X158006142Y-112180914D01*
X157860999Y-112180914D01*
X157788427Y-112144629D01*
X157752142Y-112072057D01*
X157752142Y-112035771D01*
X157788427Y-111963200D01*
X157860999Y-111926914D01*
X157969856Y-111926914D01*
X158042427Y-111890629D01*
X158078713Y-111818057D01*
X158078713Y-111781771D01*
X158042427Y-111709200D01*
X157969856Y-111672914D01*
X157860999Y-111672914D01*
X157788427Y-111709200D01*
X156409571Y-112108343D02*
X156445857Y-112144629D01*
X156554714Y-112180914D01*
X156627285Y-112180914D01*
X156736142Y-112144629D01*
X156808714Y-112072057D01*
X156844999Y-111999486D01*
X156881285Y-111854343D01*
X156881285Y-111745486D01*
X156844999Y-111600343D01*
X156808714Y-111527771D01*
X156736142Y-111455200D01*
X156627285Y-111418914D01*
X156554714Y-111418914D01*
X156445857Y-111455200D01*
X156409571Y-111491486D01*
X156082999Y-112180914D02*
X156082999Y-111418914D01*
X155756428Y-112180914D02*
X155756428Y-111781771D01*
X155792714Y-111709200D01*
X155865285Y-111672914D01*
X155974142Y-111672914D01*
X156046714Y-111709200D01*
X156082999Y-111745486D01*
X155066999Y-112180914D02*
X155066999Y-111781771D01*
X155103285Y-111709200D01*
X155175856Y-111672914D01*
X155320999Y-111672914D01*
X155393570Y-111709200D01*
X155066999Y-112144629D02*
X155139570Y-112180914D01*
X155320999Y-112180914D01*
X155393570Y-112144629D01*
X155429856Y-112072057D01*
X155429856Y-111999486D01*
X155393570Y-111926914D01*
X155320999Y-111890629D01*
X155139570Y-111890629D01*
X155066999Y-111854343D01*
X154704141Y-112180914D02*
X154704141Y-111672914D01*
X154704141Y-111818057D02*
X154667856Y-111745486D01*
X154631570Y-111709200D01*
X154558999Y-111672914D01*
X154486427Y-111672914D01*
X153905856Y-111672914D02*
X153905856Y-112289771D01*
X153942142Y-112362343D01*
X153978427Y-112398629D01*
X154050999Y-112434914D01*
X154159856Y-112434914D01*
X154232427Y-112398629D01*
X153905856Y-112144629D02*
X153978427Y-112180914D01*
X154123570Y-112180914D01*
X154196142Y-112144629D01*
X154232427Y-112108343D01*
X154268713Y-112035771D01*
X154268713Y-111818057D01*
X154232427Y-111745486D01*
X154196142Y-111709200D01*
X154123570Y-111672914D01*
X153978427Y-111672914D01*
X153905856Y-111709200D01*
X153252713Y-112144629D02*
X153325284Y-112180914D01*
X153470427Y-112180914D01*
X153542998Y-112144629D01*
X153579284Y-112072057D01*
X153579284Y-111781771D01*
X153542998Y-111709200D01*
X153470427Y-111672914D01*
X153325284Y-111672914D01*
X153252713Y-111709200D01*
X153216427Y-111781771D01*
X153216427Y-111854343D01*
X153579284Y-111926914D01*
X152889855Y-112180914D02*
X152889855Y-111672914D01*
X152889855Y-111818057D02*
X152853570Y-111745486D01*
X152817284Y-111709200D01*
X152744713Y-111672914D01*
X152672141Y-111672914D01*
X151293285Y-111491486D02*
X151256999Y-111455200D01*
X151184428Y-111418914D01*
X151002999Y-111418914D01*
X150930428Y-111455200D01*
X150894142Y-111491486D01*
X150857857Y-111564057D01*
X150857857Y-111636629D01*
X150894142Y-111745486D01*
X151329571Y-112180914D01*
X150857857Y-112180914D01*
X150168428Y-112180914D02*
X150531285Y-112180914D01*
X150531285Y-111418914D01*
X150095857Y-112253486D02*
X149515286Y-112253486D01*
X148934715Y-112180914D02*
X149370143Y-112180914D01*
X149152429Y-112180914D02*
X149152429Y-111418914D01*
X149225000Y-111527771D01*
X149297572Y-111600343D01*
X149370143Y-111636629D01*
X160473571Y-113374714D02*
X160473571Y-112612714D01*
X160110714Y-112866714D02*
X160110714Y-113374714D01*
X160110714Y-112939286D02*
X160074429Y-112903000D01*
X160001857Y-112866714D01*
X159893000Y-112866714D01*
X159820429Y-112903000D01*
X159784143Y-112975571D01*
X159784143Y-113374714D01*
X159421285Y-112866714D02*
X159421285Y-113628714D01*
X159421285Y-112903000D02*
X159348714Y-112866714D01*
X159203571Y-112866714D01*
X159131000Y-112903000D01*
X159094714Y-112939286D01*
X159058428Y-113011857D01*
X159058428Y-113229571D01*
X159094714Y-113302143D01*
X159131000Y-113338429D01*
X159203571Y-113374714D01*
X159348714Y-113374714D01*
X159421285Y-113338429D01*
X158405285Y-112866714D02*
X158405285Y-113374714D01*
X158731856Y-112866714D02*
X158731856Y-113265857D01*
X158695571Y-113338429D01*
X158622999Y-113374714D01*
X158514142Y-113374714D01*
X158441571Y-113338429D01*
X158405285Y-113302143D01*
X158151285Y-112866714D02*
X157860999Y-112866714D01*
X158042427Y-112612714D02*
X158042427Y-113265857D01*
X158006142Y-113338429D01*
X157933570Y-113374714D01*
X157860999Y-113374714D01*
X157606998Y-113302143D02*
X157570713Y-113338429D01*
X157606998Y-113374714D01*
X157643284Y-113338429D01*
X157606998Y-113302143D01*
X157606998Y-113374714D01*
X157606998Y-112903000D02*
X157570713Y-112939286D01*
X157606998Y-112975571D01*
X157643284Y-112939286D01*
X157606998Y-112903000D01*
X157606998Y-112975571D01*
X156627285Y-113374714D02*
X156482142Y-113374714D01*
X156409570Y-113338429D01*
X156373285Y-113302143D01*
X156300713Y-113193286D01*
X156264428Y-113048143D01*
X156264428Y-112757857D01*
X156300713Y-112685286D01*
X156336999Y-112649000D01*
X156409570Y-112612714D01*
X156554713Y-112612714D01*
X156627285Y-112649000D01*
X156663570Y-112685286D01*
X156699856Y-112757857D01*
X156699856Y-112939286D01*
X156663570Y-113011857D01*
X156627285Y-113048143D01*
X156554713Y-113084429D01*
X156409570Y-113084429D01*
X156336999Y-113048143D01*
X156300713Y-113011857D01*
X156264428Y-112939286D01*
X156046714Y-112612714D02*
X155792714Y-113374714D01*
X155538714Y-112612714D01*
X154305000Y-113374714D02*
X154740428Y-113374714D01*
X154522714Y-113374714D02*
X154522714Y-112612714D01*
X154595285Y-112721571D01*
X154667857Y-112794143D01*
X154740428Y-112830429D01*
X153833286Y-112612714D02*
X153760714Y-112612714D01*
X153688143Y-112649000D01*
X153651857Y-112685286D01*
X153615571Y-112757857D01*
X153579286Y-112903000D01*
X153579286Y-113084429D01*
X153615571Y-113229571D01*
X153651857Y-113302143D01*
X153688143Y-113338429D01*
X153760714Y-113374714D01*
X153833286Y-113374714D01*
X153905857Y-113338429D01*
X153942143Y-113302143D01*
X153978428Y-113229571D01*
X154014714Y-113084429D01*
X154014714Y-112903000D01*
X153978428Y-112757857D01*
X153942143Y-112685286D01*
X153905857Y-112649000D01*
X153833286Y-112612714D01*
X153216429Y-113374714D02*
X153071286Y-113374714D01*
X152998714Y-113338429D01*
X152962429Y-113302143D01*
X152889857Y-113193286D01*
X152853572Y-113048143D01*
X152853572Y-112757857D01*
X152889857Y-112685286D01*
X152926143Y-112649000D01*
X152998714Y-112612714D01*
X153143857Y-112612714D01*
X153216429Y-112649000D01*
X153252714Y-112685286D01*
X153289000Y-112757857D01*
X153289000Y-112939286D01*
X153252714Y-113011857D01*
X153216429Y-113048143D01*
X153143857Y-113084429D01*
X152998714Y-113084429D01*
X152926143Y-113048143D01*
X152889857Y-113011857D01*
X152853572Y-112939286D01*
X152527000Y-113374714D02*
X152527000Y-112866714D01*
X152527000Y-112939286D02*
X152490715Y-112903000D01*
X152418143Y-112866714D01*
X152309286Y-112866714D01*
X152236715Y-112903000D01*
X152200429Y-112975571D01*
X152200429Y-113374714D01*
X152200429Y-112975571D02*
X152164143Y-112903000D01*
X152091572Y-112866714D01*
X151982715Y-112866714D01*
X151910143Y-112903000D01*
X151873858Y-112975571D01*
X151873858Y-113374714D01*
X151547286Y-113157000D02*
X151184429Y-113157000D01*
X151619858Y-113374714D02*
X151365858Y-112612714D01*
X151111858Y-113374714D01*
X150313572Y-113338429D02*
X150204715Y-113374714D01*
X150023286Y-113374714D01*
X149950715Y-113338429D01*
X149914429Y-113302143D01*
X149878144Y-113229571D01*
X149878144Y-113157000D01*
X149914429Y-113084429D01*
X149950715Y-113048143D01*
X150023286Y-113011857D01*
X150168429Y-112975571D01*
X150241001Y-112939286D01*
X150277286Y-112903000D01*
X150313572Y-112830429D01*
X150313572Y-112757857D01*
X150277286Y-112685286D01*
X150241001Y-112649000D01*
X150168429Y-112612714D01*
X149987001Y-112612714D01*
X149878144Y-112649000D01*
X149442715Y-113374714D02*
X149515287Y-113338429D01*
X149551572Y-113302143D01*
X149587858Y-113229571D01*
X149587858Y-113011857D01*
X149551572Y-112939286D01*
X149515287Y-112903000D01*
X149442715Y-112866714D01*
X149333858Y-112866714D01*
X149261287Y-112903000D01*
X149225001Y-112939286D01*
X149188715Y-113011857D01*
X149188715Y-113229571D01*
X149225001Y-113302143D01*
X149261287Y-113338429D01*
X149333858Y-113374714D01*
X149442715Y-113374714D01*
X148753286Y-113374714D02*
X148825858Y-113338429D01*
X148862143Y-113265857D01*
X148862143Y-112612714D01*
X148136429Y-113374714D02*
X148136429Y-112975571D01*
X148172715Y-112903000D01*
X148245286Y-112866714D01*
X148390429Y-112866714D01*
X148463000Y-112903000D01*
X148136429Y-113338429D02*
X148209000Y-113374714D01*
X148390429Y-113374714D01*
X148463000Y-113338429D01*
X148499286Y-113265857D01*
X148499286Y-113193286D01*
X148463000Y-113120714D01*
X148390429Y-113084429D01*
X148209000Y-113084429D01*
X148136429Y-113048143D01*
X147773571Y-113374714D02*
X147773571Y-112866714D01*
X147773571Y-113011857D02*
X147737286Y-112939286D01*
X147701000Y-112903000D01*
X147628429Y-112866714D01*
X147555857Y-112866714D01*
X160328429Y-113806514D02*
X160183286Y-113806514D01*
X160110714Y-113842800D01*
X160038143Y-113915371D01*
X160001857Y-114060514D01*
X160001857Y-114314514D01*
X160038143Y-114459657D01*
X160110714Y-114532229D01*
X160183286Y-114568514D01*
X160328429Y-114568514D01*
X160401000Y-114532229D01*
X160473571Y-114459657D01*
X160509857Y-114314514D01*
X160509857Y-114060514D01*
X160473571Y-113915371D01*
X160401000Y-113842800D01*
X160328429Y-113806514D01*
X159348714Y-114060514D02*
X159348714Y-114568514D01*
X159675285Y-114060514D02*
X159675285Y-114459657D01*
X159639000Y-114532229D01*
X159566428Y-114568514D01*
X159457571Y-114568514D01*
X159385000Y-114532229D01*
X159348714Y-114495943D01*
X159094714Y-114060514D02*
X158804428Y-114060514D01*
X158985856Y-113806514D02*
X158985856Y-114459657D01*
X158949571Y-114532229D01*
X158876999Y-114568514D01*
X158804428Y-114568514D01*
X158550427Y-114060514D02*
X158550427Y-114822514D01*
X158550427Y-114096800D02*
X158477856Y-114060514D01*
X158332713Y-114060514D01*
X158260142Y-114096800D01*
X158223856Y-114133086D01*
X158187570Y-114205657D01*
X158187570Y-114423371D01*
X158223856Y-114495943D01*
X158260142Y-114532229D01*
X158332713Y-114568514D01*
X158477856Y-114568514D01*
X158550427Y-114532229D01*
X157534427Y-114060514D02*
X157534427Y-114568514D01*
X157860998Y-114060514D02*
X157860998Y-114459657D01*
X157824713Y-114532229D01*
X157752141Y-114568514D01*
X157643284Y-114568514D01*
X157570713Y-114532229D01*
X157534427Y-114495943D01*
X157280427Y-114060514D02*
X156990141Y-114060514D01*
X157171569Y-113806514D02*
X157171569Y-114459657D01*
X157135284Y-114532229D01*
X157062712Y-114568514D01*
X156990141Y-114568514D01*
X156736140Y-114495943D02*
X156699855Y-114532229D01*
X156736140Y-114568514D01*
X156772426Y-114532229D01*
X156736140Y-114495943D01*
X156736140Y-114568514D01*
X156736140Y-114096800D02*
X156699855Y-114133086D01*
X156736140Y-114169371D01*
X156772426Y-114133086D01*
X156736140Y-114096800D01*
X156736140Y-114169371D01*
X155466141Y-113806514D02*
X155611284Y-113806514D01*
X155683855Y-113842800D01*
X155720141Y-113879086D01*
X155792712Y-113987943D01*
X155828998Y-114133086D01*
X155828998Y-114423371D01*
X155792712Y-114495943D01*
X155756427Y-114532229D01*
X155683855Y-114568514D01*
X155538712Y-114568514D01*
X155466141Y-114532229D01*
X155429855Y-114495943D01*
X155393570Y-114423371D01*
X155393570Y-114241943D01*
X155429855Y-114169371D01*
X155466141Y-114133086D01*
X155538712Y-114096800D01*
X155683855Y-114096800D01*
X155756427Y-114133086D01*
X155792712Y-114169371D01*
X155828998Y-114241943D01*
X155175856Y-113806514D02*
X154921856Y-114568514D01*
X154667856Y-113806514D01*
X153434142Y-114568514D02*
X153869570Y-114568514D01*
X153651856Y-114568514D02*
X153651856Y-113806514D01*
X153724427Y-113915371D01*
X153796999Y-113987943D01*
X153869570Y-114024229D01*
X153107570Y-114495943D02*
X153071285Y-114532229D01*
X153107570Y-114568514D01*
X153143856Y-114532229D01*
X153107570Y-114495943D01*
X153107570Y-114568514D01*
X152780999Y-113879086D02*
X152744713Y-113842800D01*
X152672142Y-113806514D01*
X152490713Y-113806514D01*
X152418142Y-113842800D01*
X152381856Y-113879086D01*
X152345571Y-113951657D01*
X152345571Y-114024229D01*
X152381856Y-114133086D01*
X152817285Y-114568514D01*
X152345571Y-114568514D01*
X152055285Y-114350800D02*
X151692428Y-114350800D01*
X152127857Y-114568514D02*
X151873857Y-113806514D01*
X151619857Y-114568514D01*
X151365856Y-114568514D02*
X151365856Y-113806514D01*
X151039285Y-114568514D02*
X151039285Y-114169371D01*
X151075571Y-114096800D01*
X151148142Y-114060514D01*
X151256999Y-114060514D01*
X151329571Y-114096800D01*
X151365856Y-114133086D01*
X150132142Y-114532229D02*
X150023285Y-114568514D01*
X149841856Y-114568514D01*
X149769285Y-114532229D01*
X149732999Y-114495943D01*
X149696714Y-114423371D01*
X149696714Y-114350800D01*
X149732999Y-114278229D01*
X149769285Y-114241943D01*
X149841856Y-114205657D01*
X149986999Y-114169371D01*
X150059571Y-114133086D01*
X150095856Y-114096800D01*
X150132142Y-114024229D01*
X150132142Y-113951657D01*
X150095856Y-113879086D01*
X150059571Y-113842800D01*
X149986999Y-113806514D01*
X149805571Y-113806514D01*
X149696714Y-113842800D01*
X149079857Y-114532229D02*
X149152428Y-114568514D01*
X149297571Y-114568514D01*
X149370142Y-114532229D01*
X149406428Y-114459657D01*
X149406428Y-114169371D01*
X149370142Y-114096800D01*
X149297571Y-114060514D01*
X149152428Y-114060514D01*
X149079857Y-114096800D01*
X149043571Y-114169371D01*
X149043571Y-114241943D01*
X149406428Y-114314514D01*
X148390428Y-114568514D02*
X148390428Y-114169371D01*
X148426714Y-114096800D01*
X148499285Y-114060514D01*
X148644428Y-114060514D01*
X148716999Y-114096800D01*
X148390428Y-114532229D02*
X148462999Y-114568514D01*
X148644428Y-114568514D01*
X148716999Y-114532229D01*
X148753285Y-114459657D01*
X148753285Y-114387086D01*
X148716999Y-114314514D01*
X148644428Y-114278229D01*
X148462999Y-114278229D01*
X148390428Y-114241943D01*
X147918713Y-114568514D02*
X147991285Y-114532229D01*
X148027570Y-114459657D01*
X148027570Y-113806514D01*
X147338142Y-114532229D02*
X147410713Y-114568514D01*
X147555856Y-114568514D01*
X147628427Y-114532229D01*
X147664713Y-114459657D01*
X147664713Y-114169371D01*
X147628427Y-114096800D01*
X147555856Y-114060514D01*
X147410713Y-114060514D01*
X147338142Y-114096800D01*
X147301856Y-114169371D01*
X147301856Y-114241943D01*
X147664713Y-114314514D01*
X146648713Y-114568514D02*
X146648713Y-113806514D01*
X146648713Y-114532229D02*
X146721284Y-114568514D01*
X146866427Y-114568514D01*
X146938999Y-114532229D01*
X146975284Y-114495943D01*
X147011570Y-114423371D01*
X147011570Y-114205657D01*
X146975284Y-114133086D01*
X146938999Y-114096800D01*
X146866427Y-114060514D01*
X146721284Y-114060514D01*
X146648713Y-114096800D01*
X145342427Y-114568514D02*
X145705284Y-114568514D01*
X145705284Y-113806514D01*
X144798142Y-114532229D02*
X144870713Y-114568514D01*
X145015856Y-114568514D01*
X145088427Y-114532229D01*
X145124713Y-114459657D01*
X145124713Y-114169371D01*
X145088427Y-114096800D01*
X145015856Y-114060514D01*
X144870713Y-114060514D01*
X144798142Y-114096800D01*
X144761856Y-114169371D01*
X144761856Y-114241943D01*
X145124713Y-114314514D01*
X144108713Y-114568514D02*
X144108713Y-114169371D01*
X144144999Y-114096800D01*
X144217570Y-114060514D01*
X144362713Y-114060514D01*
X144435284Y-114096800D01*
X144108713Y-114532229D02*
X144181284Y-114568514D01*
X144362713Y-114568514D01*
X144435284Y-114532229D01*
X144471570Y-114459657D01*
X144471570Y-114387086D01*
X144435284Y-114314514D01*
X144362713Y-114278229D01*
X144181284Y-114278229D01*
X144108713Y-114241943D01*
X143419284Y-114568514D02*
X143419284Y-113806514D01*
X143419284Y-114532229D02*
X143491855Y-114568514D01*
X143636998Y-114568514D01*
X143709570Y-114532229D01*
X143745855Y-114495943D01*
X143782141Y-114423371D01*
X143782141Y-114205657D01*
X143745855Y-114133086D01*
X143709570Y-114096800D01*
X143636998Y-114060514D01*
X143491855Y-114060514D01*
X143419284Y-114096800D01*
X142512141Y-114350800D02*
X142149284Y-114350800D01*
X142584713Y-114568514D02*
X142330713Y-113806514D01*
X142076713Y-114568514D01*
X141496141Y-114532229D02*
X141568712Y-114568514D01*
X141713855Y-114568514D01*
X141786427Y-114532229D01*
X141822712Y-114495943D01*
X141858998Y-114423371D01*
X141858998Y-114205657D01*
X141822712Y-114133086D01*
X141786427Y-114096800D01*
X141713855Y-114060514D01*
X141568712Y-114060514D01*
X141496141Y-114096800D01*
X141169569Y-114568514D02*
X141169569Y-114060514D01*
X141169569Y-113806514D02*
X141205855Y-113842800D01*
X141169569Y-113879086D01*
X141133284Y-113842800D01*
X141169569Y-113806514D01*
X141169569Y-113879086D01*
X140480141Y-114568514D02*
X140480141Y-113806514D01*
X140480141Y-114532229D02*
X140552712Y-114568514D01*
X140697855Y-114568514D01*
X140770427Y-114532229D01*
X140806712Y-114495943D01*
X140842998Y-114423371D01*
X140842998Y-114205657D01*
X140806712Y-114133086D01*
X140770427Y-114096800D01*
X140697855Y-114060514D01*
X140552712Y-114060514D01*
X140480141Y-114096800D01*
X168275001Y-117747143D02*
X168311287Y-117783429D01*
X168420144Y-117819714D01*
X168492715Y-117819714D01*
X168601572Y-117783429D01*
X168674144Y-117710857D01*
X168710429Y-117638286D01*
X168746715Y-117493143D01*
X168746715Y-117384286D01*
X168710429Y-117239143D01*
X168674144Y-117166571D01*
X168601572Y-117094000D01*
X168492715Y-117057714D01*
X168420144Y-117057714D01*
X168311287Y-117094000D01*
X168275001Y-117130286D01*
X167948429Y-117819714D02*
X167948429Y-117057714D01*
X167621858Y-117819714D02*
X167621858Y-117420571D01*
X167658144Y-117348000D01*
X167730715Y-117311714D01*
X167839572Y-117311714D01*
X167912144Y-117348000D01*
X167948429Y-117384286D01*
X166932429Y-117819714D02*
X166932429Y-117420571D01*
X166968715Y-117348000D01*
X167041286Y-117311714D01*
X167186429Y-117311714D01*
X167259000Y-117348000D01*
X166932429Y-117783429D02*
X167005000Y-117819714D01*
X167186429Y-117819714D01*
X167259000Y-117783429D01*
X167295286Y-117710857D01*
X167295286Y-117638286D01*
X167259000Y-117565714D01*
X167186429Y-117529429D01*
X167005000Y-117529429D01*
X166932429Y-117493143D01*
X166569571Y-117819714D02*
X166569571Y-117311714D01*
X166569571Y-117456857D02*
X166533286Y-117384286D01*
X166497000Y-117348000D01*
X166424429Y-117311714D01*
X166351857Y-117311714D01*
X165771286Y-117311714D02*
X165771286Y-117928571D01*
X165807572Y-118001143D01*
X165843857Y-118037429D01*
X165916429Y-118073714D01*
X166025286Y-118073714D01*
X166097857Y-118037429D01*
X165771286Y-117783429D02*
X165843857Y-117819714D01*
X165989000Y-117819714D01*
X166061572Y-117783429D01*
X166097857Y-117747143D01*
X166134143Y-117674571D01*
X166134143Y-117456857D01*
X166097857Y-117384286D01*
X166061572Y-117348000D01*
X165989000Y-117311714D01*
X165843857Y-117311714D01*
X165771286Y-117348000D01*
X165408428Y-117819714D02*
X165408428Y-117311714D01*
X165408428Y-117057714D02*
X165444714Y-117094000D01*
X165408428Y-117130286D01*
X165372143Y-117094000D01*
X165408428Y-117057714D01*
X165408428Y-117130286D01*
X165045571Y-117311714D02*
X165045571Y-117819714D01*
X165045571Y-117384286D02*
X165009286Y-117348000D01*
X164936714Y-117311714D01*
X164827857Y-117311714D01*
X164755286Y-117348000D01*
X164719000Y-117420571D01*
X164719000Y-117819714D01*
X164029571Y-117311714D02*
X164029571Y-117928571D01*
X164065857Y-118001143D01*
X164102142Y-118037429D01*
X164174714Y-118073714D01*
X164283571Y-118073714D01*
X164356142Y-118037429D01*
X164029571Y-117783429D02*
X164102142Y-117819714D01*
X164247285Y-117819714D01*
X164319857Y-117783429D01*
X164356142Y-117747143D01*
X164392428Y-117674571D01*
X164392428Y-117456857D01*
X164356142Y-117384286D01*
X164319857Y-117348000D01*
X164247285Y-117311714D01*
X164102142Y-117311714D01*
X164029571Y-117348000D01*
D12*
X166370462Y-116655000D02*
G75*
G02X164825170Y-111105000I-462J2990000D01*
G01*
X166369538Y-116655000D02*
G75*
G03X167914830Y-111105000I462J2990000D01*
G01*
X168870000Y-113665000D02*
G75*
G03X168870000Y-113665000I-2500000J0D01*
G01*
X164825000Y-111105000D02*
X167915000Y-111105000D01*
D11*
X162754714Y-113102572D02*
X161992714Y-113102572D01*
X161992714Y-113284000D01*
X162029000Y-113392857D01*
X162101571Y-113465429D01*
X162174143Y-113501714D01*
X162319286Y-113538000D01*
X162428143Y-113538000D01*
X162573286Y-113501714D01*
X162645857Y-113465429D01*
X162718429Y-113392857D01*
X162754714Y-113284000D01*
X162754714Y-113102572D01*
X162065286Y-113828286D02*
X162029000Y-113864572D01*
X161992714Y-113937143D01*
X161992714Y-114118572D01*
X162029000Y-114191143D01*
X162065286Y-114227429D01*
X162137857Y-114263714D01*
X162210429Y-114263714D01*
X162319286Y-114227429D01*
X162754714Y-113792000D01*
X162754714Y-114263714D01*
M02*
