G04 #@! TF.FileFunction,Legend,Top*
%FSLAX46Y46*%
G04 Gerber Fmt 4.6, Leading zero omitted, Abs format (unit mm)*
G04 Created by KiCad (PCBNEW 4.0.0-rc1-stable) date 17/09/2017 11:41:04*
%MOMM*%
G01*
G04 APERTURE LIST*
%ADD10C,0.076200*%
%ADD11C,0.127000*%
%ADD12C,0.300000*%
%ADD13C,0.120000*%
%ADD14C,0.150000*%
%ADD15C,0.100000*%
G04 APERTURE END LIST*
D10*
D11*
X172738142Y-95195571D02*
X172157571Y-95195571D01*
X172447857Y-94905286D02*
X172447857Y-95485857D01*
X169472429Y-95195571D02*
X168891858Y-95195571D01*
X139681858Y-95304429D02*
X140262429Y-95304429D01*
X139972143Y-95594714D02*
X139972143Y-95014143D01*
X142947571Y-95304429D02*
X143528142Y-95304429D01*
X174679429Y-96919143D02*
X174643143Y-97028000D01*
X174606857Y-97064285D01*
X174534286Y-97100571D01*
X174425429Y-97100571D01*
X174352857Y-97064285D01*
X174316571Y-97028000D01*
X174280286Y-96955428D01*
X174280286Y-96665143D01*
X175042286Y-96665143D01*
X175042286Y-96919143D01*
X175006000Y-96991714D01*
X174969714Y-97028000D01*
X174897143Y-97064285D01*
X174824571Y-97064285D01*
X174752000Y-97028000D01*
X174715714Y-96991714D01*
X174679429Y-96919143D01*
X174679429Y-96665143D01*
X174280286Y-97753714D02*
X174679429Y-97753714D01*
X174752000Y-97717428D01*
X174788286Y-97644857D01*
X174788286Y-97499714D01*
X174752000Y-97427143D01*
X174316571Y-97753714D02*
X174280286Y-97681143D01*
X174280286Y-97499714D01*
X174316571Y-97427143D01*
X174389143Y-97390857D01*
X174461714Y-97390857D01*
X174534286Y-97427143D01*
X174570571Y-97499714D01*
X174570571Y-97681143D01*
X174606857Y-97753714D01*
X174788286Y-98007714D02*
X174788286Y-98298000D01*
X175042286Y-98116572D02*
X174389143Y-98116572D01*
X174316571Y-98152857D01*
X174280286Y-98225429D01*
X174280286Y-98298000D01*
X174788286Y-98443143D02*
X174788286Y-98733429D01*
X175042286Y-98552001D02*
X174389143Y-98552001D01*
X174316571Y-98588286D01*
X174280286Y-98660858D01*
X174280286Y-98733429D01*
X174280286Y-99568001D02*
X175042286Y-99568001D01*
X174498000Y-99822001D01*
X175042286Y-100076001D01*
X174280286Y-100076001D01*
X174280286Y-100547715D02*
X174316571Y-100475143D01*
X174352857Y-100438858D01*
X174425429Y-100402572D01*
X174643143Y-100402572D01*
X174715714Y-100438858D01*
X174752000Y-100475143D01*
X174788286Y-100547715D01*
X174788286Y-100656572D01*
X174752000Y-100729143D01*
X174715714Y-100765429D01*
X174643143Y-100801715D01*
X174425429Y-100801715D01*
X174352857Y-100765429D01*
X174316571Y-100729143D01*
X174280286Y-100656572D01*
X174280286Y-100547715D01*
X174788286Y-101128287D02*
X174280286Y-101128287D01*
X174715714Y-101128287D02*
X174752000Y-101164572D01*
X174788286Y-101237144D01*
X174788286Y-101346001D01*
X174752000Y-101418572D01*
X174679429Y-101454858D01*
X174280286Y-101454858D01*
X138103429Y-101817714D02*
X138139714Y-101708857D01*
X138139714Y-101527428D01*
X138103429Y-101454857D01*
X138067143Y-101418571D01*
X137994571Y-101382286D01*
X137922000Y-101382286D01*
X137849429Y-101418571D01*
X137813143Y-101454857D01*
X137776857Y-101527428D01*
X137740571Y-101672571D01*
X137704286Y-101745143D01*
X137668000Y-101781428D01*
X137595429Y-101817714D01*
X137522857Y-101817714D01*
X137450286Y-101781428D01*
X137414000Y-101745143D01*
X137377714Y-101672571D01*
X137377714Y-101491143D01*
X137414000Y-101382286D01*
X138139714Y-100946857D02*
X138103429Y-101019429D01*
X138067143Y-101055714D01*
X137994571Y-101092000D01*
X137776857Y-101092000D01*
X137704286Y-101055714D01*
X137668000Y-101019429D01*
X137631714Y-100946857D01*
X137631714Y-100838000D01*
X137668000Y-100765429D01*
X137704286Y-100729143D01*
X137776857Y-100692857D01*
X137994571Y-100692857D01*
X138067143Y-100729143D01*
X138103429Y-100765429D01*
X138139714Y-100838000D01*
X138139714Y-100946857D01*
X138139714Y-100257428D02*
X138103429Y-100330000D01*
X138030857Y-100366285D01*
X137377714Y-100366285D01*
X138139714Y-99640571D02*
X137740571Y-99640571D01*
X137668000Y-99676857D01*
X137631714Y-99749428D01*
X137631714Y-99894571D01*
X137668000Y-99967142D01*
X138103429Y-99640571D02*
X138139714Y-99713142D01*
X138139714Y-99894571D01*
X138103429Y-99967142D01*
X138030857Y-100003428D01*
X137958286Y-100003428D01*
X137885714Y-99967142D01*
X137849429Y-99894571D01*
X137849429Y-99713142D01*
X137813143Y-99640571D01*
X138139714Y-99277713D02*
X137631714Y-99277713D01*
X137776857Y-99277713D02*
X137704286Y-99241428D01*
X137668000Y-99205142D01*
X137631714Y-99132571D01*
X137631714Y-99059999D01*
X138139714Y-98225428D02*
X137377714Y-98225428D01*
X137922000Y-97971428D01*
X137377714Y-97717428D01*
X138139714Y-97717428D01*
X138139714Y-97245714D02*
X138103429Y-97318286D01*
X138067143Y-97354571D01*
X137994571Y-97390857D01*
X137776857Y-97390857D01*
X137704286Y-97354571D01*
X137668000Y-97318286D01*
X137631714Y-97245714D01*
X137631714Y-97136857D01*
X137668000Y-97064286D01*
X137704286Y-97028000D01*
X137776857Y-96991714D01*
X137994571Y-96991714D01*
X138067143Y-97028000D01*
X138103429Y-97064286D01*
X138139714Y-97136857D01*
X138139714Y-97245714D01*
X137631714Y-96665142D02*
X138139714Y-96665142D01*
X137704286Y-96665142D02*
X137668000Y-96628857D01*
X137631714Y-96556285D01*
X137631714Y-96447428D01*
X137668000Y-96374857D01*
X137740571Y-96338571D01*
X138139714Y-96338571D01*
X160491714Y-94997814D02*
X160128857Y-94997814D01*
X160128857Y-94235814D01*
X160854571Y-94997814D02*
X160781999Y-94961529D01*
X160745714Y-94925243D01*
X160709428Y-94852671D01*
X160709428Y-94634957D01*
X160745714Y-94562386D01*
X160781999Y-94526100D01*
X160854571Y-94489814D01*
X160963428Y-94489814D01*
X161035999Y-94526100D01*
X161072285Y-94562386D01*
X161108571Y-94634957D01*
X161108571Y-94852671D01*
X161072285Y-94925243D01*
X161035999Y-94961529D01*
X160963428Y-94997814D01*
X160854571Y-94997814D01*
X161761714Y-94997814D02*
X161761714Y-94598671D01*
X161725428Y-94526100D01*
X161652857Y-94489814D01*
X161507714Y-94489814D01*
X161435143Y-94526100D01*
X161761714Y-94961529D02*
X161689143Y-94997814D01*
X161507714Y-94997814D01*
X161435143Y-94961529D01*
X161398857Y-94888957D01*
X161398857Y-94816386D01*
X161435143Y-94743814D01*
X161507714Y-94707529D01*
X161689143Y-94707529D01*
X161761714Y-94671243D01*
X162451143Y-94997814D02*
X162451143Y-94235814D01*
X162451143Y-94961529D02*
X162378572Y-94997814D01*
X162233429Y-94997814D01*
X162160857Y-94961529D01*
X162124572Y-94925243D01*
X162088286Y-94852671D01*
X162088286Y-94634957D01*
X162124572Y-94562386D01*
X162160857Y-94526100D01*
X162233429Y-94489814D01*
X162378572Y-94489814D01*
X162451143Y-94526100D01*
X158205716Y-95901329D02*
X158786287Y-95901329D01*
X158496001Y-96191614D02*
X158496001Y-95611043D01*
X163793713Y-95901329D02*
X164374284Y-95901329D01*
X148354143Y-94997814D02*
X147991286Y-94997814D01*
X147991286Y-94235814D01*
X148717000Y-94997814D02*
X148644428Y-94961529D01*
X148608143Y-94925243D01*
X148571857Y-94852671D01*
X148571857Y-94634957D01*
X148608143Y-94562386D01*
X148644428Y-94526100D01*
X148717000Y-94489814D01*
X148825857Y-94489814D01*
X148898428Y-94526100D01*
X148934714Y-94562386D01*
X148971000Y-94634957D01*
X148971000Y-94852671D01*
X148934714Y-94925243D01*
X148898428Y-94961529D01*
X148825857Y-94997814D01*
X148717000Y-94997814D01*
X149624143Y-94997814D02*
X149624143Y-94598671D01*
X149587857Y-94526100D01*
X149515286Y-94489814D01*
X149370143Y-94489814D01*
X149297572Y-94526100D01*
X149624143Y-94961529D02*
X149551572Y-94997814D01*
X149370143Y-94997814D01*
X149297572Y-94961529D01*
X149261286Y-94888957D01*
X149261286Y-94816386D01*
X149297572Y-94743814D01*
X149370143Y-94707529D01*
X149551572Y-94707529D01*
X149624143Y-94671243D01*
X150313572Y-94997814D02*
X150313572Y-94235814D01*
X150313572Y-94961529D02*
X150241001Y-94997814D01*
X150095858Y-94997814D01*
X150023286Y-94961529D01*
X149987001Y-94925243D01*
X149950715Y-94852671D01*
X149950715Y-94634957D01*
X149987001Y-94562386D01*
X150023286Y-94526100D01*
X150095858Y-94489814D01*
X150241001Y-94489814D01*
X150313572Y-94526100D01*
X151257001Y-94997814D02*
X151257001Y-94235814D01*
X151547286Y-94235814D01*
X151619858Y-94272100D01*
X151656143Y-94308386D01*
X151692429Y-94380957D01*
X151692429Y-94489814D01*
X151656143Y-94562386D01*
X151619858Y-94598671D01*
X151547286Y-94634957D01*
X151257001Y-94634957D01*
X152127858Y-94997814D02*
X152055286Y-94961529D01*
X152019001Y-94925243D01*
X151982715Y-94852671D01*
X151982715Y-94634957D01*
X152019001Y-94562386D01*
X152055286Y-94526100D01*
X152127858Y-94489814D01*
X152236715Y-94489814D01*
X152309286Y-94526100D01*
X152345572Y-94562386D01*
X152381858Y-94634957D01*
X152381858Y-94852671D01*
X152345572Y-94925243D01*
X152309286Y-94961529D01*
X152236715Y-94997814D01*
X152127858Y-94997814D01*
X152635858Y-94489814D02*
X152781001Y-94997814D01*
X152926144Y-94634957D01*
X153071287Y-94997814D01*
X153216430Y-94489814D01*
X153797001Y-94961529D02*
X153724430Y-94997814D01*
X153579287Y-94997814D01*
X153506716Y-94961529D01*
X153470430Y-94888957D01*
X153470430Y-94598671D01*
X153506716Y-94526100D01*
X153579287Y-94489814D01*
X153724430Y-94489814D01*
X153797001Y-94526100D01*
X153833287Y-94598671D01*
X153833287Y-94671243D01*
X153470430Y-94743814D01*
X154159859Y-94997814D02*
X154159859Y-94489814D01*
X154159859Y-94634957D02*
X154196144Y-94562386D01*
X154232430Y-94526100D01*
X154305001Y-94489814D01*
X154377573Y-94489814D01*
X148045716Y-95901329D02*
X148626287Y-95901329D01*
X148336001Y-96191614D02*
X148336001Y-95611043D01*
X153633713Y-95901329D02*
X154214284Y-95901329D01*
D12*
X180867857Y-104100715D02*
X180867857Y-105243572D01*
X180296429Y-104672143D02*
X181439286Y-104672143D01*
X180867857Y-109386429D02*
X180867857Y-110529286D01*
X131337857Y-104100715D02*
X131337857Y-105243572D01*
X130766429Y-104672143D02*
X131909286Y-104672143D01*
X131337857Y-109386429D02*
X131337857Y-110529286D01*
D11*
X170125571Y-109528428D02*
X170161857Y-109419571D01*
X170198143Y-109383286D01*
X170270714Y-109347000D01*
X170379571Y-109347000D01*
X170452143Y-109383286D01*
X170488429Y-109419571D01*
X170524714Y-109492143D01*
X170524714Y-109782428D01*
X169762714Y-109782428D01*
X169762714Y-109528428D01*
X169799000Y-109455857D01*
X169835286Y-109419571D01*
X169907857Y-109383286D01*
X169980429Y-109383286D01*
X170053000Y-109419571D01*
X170089286Y-109455857D01*
X170125571Y-109528428D01*
X170125571Y-109782428D01*
X170524714Y-108693857D02*
X170125571Y-108693857D01*
X170053000Y-108730143D01*
X170016714Y-108802714D01*
X170016714Y-108947857D01*
X170053000Y-109020428D01*
X170488429Y-108693857D02*
X170524714Y-108766428D01*
X170524714Y-108947857D01*
X170488429Y-109020428D01*
X170415857Y-109056714D01*
X170343286Y-109056714D01*
X170270714Y-109020428D01*
X170234429Y-108947857D01*
X170234429Y-108766428D01*
X170198143Y-108693857D01*
X170016714Y-108439857D02*
X170016714Y-108149571D01*
X169762714Y-108330999D02*
X170415857Y-108330999D01*
X170488429Y-108294714D01*
X170524714Y-108222142D01*
X170524714Y-108149571D01*
X170016714Y-108004428D02*
X170016714Y-107714142D01*
X169762714Y-107895570D02*
X170415857Y-107895570D01*
X170488429Y-107859285D01*
X170524714Y-107786713D01*
X170524714Y-107714142D01*
X170488429Y-107169856D02*
X170524714Y-107242427D01*
X170524714Y-107387570D01*
X170488429Y-107460141D01*
X170415857Y-107496427D01*
X170125571Y-107496427D01*
X170053000Y-107460141D01*
X170016714Y-107387570D01*
X170016714Y-107242427D01*
X170053000Y-107169856D01*
X170125571Y-107133570D01*
X170198143Y-107133570D01*
X170270714Y-107496427D01*
X170524714Y-106806998D02*
X170016714Y-106806998D01*
X170161857Y-106806998D02*
X170089286Y-106770713D01*
X170053000Y-106734427D01*
X170016714Y-106661856D01*
X170016714Y-106589284D01*
X170016714Y-106407856D02*
X170524714Y-106226427D01*
X170016714Y-106044999D02*
X170524714Y-106226427D01*
X170706143Y-106298999D01*
X170742429Y-106335284D01*
X170778714Y-106407856D01*
X141296571Y-104720571D02*
X141260286Y-104829428D01*
X141260286Y-105010857D01*
X141296571Y-105083428D01*
X141332857Y-105119714D01*
X141405429Y-105155999D01*
X141478000Y-105155999D01*
X141550571Y-105119714D01*
X141586857Y-105083428D01*
X141623143Y-105010857D01*
X141659429Y-104865714D01*
X141695714Y-104793142D01*
X141732000Y-104756857D01*
X141804571Y-104720571D01*
X141877143Y-104720571D01*
X141949714Y-104756857D01*
X141986000Y-104793142D01*
X142022286Y-104865714D01*
X142022286Y-105047142D01*
X141986000Y-105155999D01*
X141260286Y-105591428D02*
X141296571Y-105518856D01*
X141332857Y-105482571D01*
X141405429Y-105446285D01*
X141623143Y-105446285D01*
X141695714Y-105482571D01*
X141732000Y-105518856D01*
X141768286Y-105591428D01*
X141768286Y-105700285D01*
X141732000Y-105772856D01*
X141695714Y-105809142D01*
X141623143Y-105845428D01*
X141405429Y-105845428D01*
X141332857Y-105809142D01*
X141296571Y-105772856D01*
X141260286Y-105700285D01*
X141260286Y-105591428D01*
X141260286Y-106280857D02*
X141296571Y-106208285D01*
X141369143Y-106172000D01*
X142022286Y-106172000D01*
X141260286Y-106897714D02*
X141659429Y-106897714D01*
X141732000Y-106861428D01*
X141768286Y-106788857D01*
X141768286Y-106643714D01*
X141732000Y-106571143D01*
X141296571Y-106897714D02*
X141260286Y-106825143D01*
X141260286Y-106643714D01*
X141296571Y-106571143D01*
X141369143Y-106534857D01*
X141441714Y-106534857D01*
X141514286Y-106571143D01*
X141550571Y-106643714D01*
X141550571Y-106825143D01*
X141586857Y-106897714D01*
X141260286Y-107260572D02*
X141768286Y-107260572D01*
X141623143Y-107260572D02*
X141695714Y-107296857D01*
X141732000Y-107333143D01*
X141768286Y-107405714D01*
X141768286Y-107478286D01*
X141260286Y-108312857D02*
X142022286Y-108312857D01*
X142022286Y-108603142D01*
X141986000Y-108675714D01*
X141949714Y-108711999D01*
X141877143Y-108748285D01*
X141768286Y-108748285D01*
X141695714Y-108711999D01*
X141659429Y-108675714D01*
X141623143Y-108603142D01*
X141623143Y-108312857D01*
X141260286Y-109401428D02*
X141659429Y-109401428D01*
X141732000Y-109365142D01*
X141768286Y-109292571D01*
X141768286Y-109147428D01*
X141732000Y-109074857D01*
X141296571Y-109401428D02*
X141260286Y-109328857D01*
X141260286Y-109147428D01*
X141296571Y-109074857D01*
X141369143Y-109038571D01*
X141441714Y-109038571D01*
X141514286Y-109074857D01*
X141550571Y-109147428D01*
X141550571Y-109328857D01*
X141586857Y-109401428D01*
X141768286Y-109764286D02*
X141260286Y-109764286D01*
X141695714Y-109764286D02*
X141732000Y-109800571D01*
X141768286Y-109873143D01*
X141768286Y-109982000D01*
X141732000Y-110054571D01*
X141659429Y-110090857D01*
X141260286Y-110090857D01*
X141296571Y-110744000D02*
X141260286Y-110671429D01*
X141260286Y-110526286D01*
X141296571Y-110453715D01*
X141369143Y-110417429D01*
X141659429Y-110417429D01*
X141732000Y-110453715D01*
X141768286Y-110526286D01*
X141768286Y-110671429D01*
X141732000Y-110744000D01*
X141659429Y-110780286D01*
X141586857Y-110780286D01*
X141514286Y-110417429D01*
X141260286Y-111215715D02*
X141296571Y-111143143D01*
X141369143Y-111106858D01*
X142022286Y-111106858D01*
D13*
X150635000Y-110370000D02*
X147815000Y-110370000D01*
X147815000Y-110370000D02*
X147815000Y-115690000D01*
X147815000Y-115690000D02*
X150635000Y-115690000D01*
X150635000Y-115690000D02*
X150635000Y-110370000D01*
X149225000Y-109230000D02*
X149225000Y-110370000D01*
X149225000Y-116830000D02*
X149225000Y-115690000D01*
X150635000Y-111210000D02*
X147815000Y-111210000D01*
X152895000Y-115690000D02*
X155715000Y-115690000D01*
X155715000Y-115690000D02*
X155715000Y-110370000D01*
X155715000Y-110370000D02*
X152895000Y-110370000D01*
X152895000Y-110370000D02*
X152895000Y-115690000D01*
X154305000Y-116830000D02*
X154305000Y-115690000D01*
X154305000Y-109230000D02*
X154305000Y-110370000D01*
X152895000Y-114850000D02*
X155715000Y-114850000D01*
X160795000Y-110370000D02*
X157975000Y-110370000D01*
X157975000Y-110370000D02*
X157975000Y-115690000D01*
X157975000Y-115690000D02*
X160795000Y-115690000D01*
X160795000Y-115690000D02*
X160795000Y-110370000D01*
X159385000Y-109230000D02*
X159385000Y-110370000D01*
X159385000Y-116830000D02*
X159385000Y-115690000D01*
X160795000Y-111210000D02*
X157975000Y-111210000D01*
D14*
X133525000Y-103310000D02*
X133525000Y-112210000D01*
X133525000Y-112210000D02*
X134025000Y-112210000D01*
X135025000Y-110490000D02*
X133525000Y-110490000D01*
X135025000Y-105410000D02*
X133525000Y-105410000D01*
X134025000Y-103310000D02*
X133525000Y-103310000D01*
X140425000Y-102870000D02*
X140425000Y-113030000D01*
X140425000Y-113030000D02*
X132325000Y-113030000D01*
X132325000Y-113030000D02*
X132325000Y-102870000D01*
X132325000Y-102870000D02*
X140425000Y-102870000D01*
X178260000Y-112590000D02*
X178260000Y-103690000D01*
X178260000Y-103690000D02*
X177760000Y-103690000D01*
X176760000Y-105410000D02*
X178260000Y-105410000D01*
X176760000Y-110490000D02*
X178260000Y-110490000D01*
X177760000Y-112590000D02*
X178260000Y-112590000D01*
X171360000Y-113030000D02*
X171360000Y-102870000D01*
X171360000Y-102870000D02*
X179460000Y-102870000D01*
X179460000Y-102870000D02*
X179460000Y-113030000D01*
X179460000Y-113030000D02*
X171360000Y-113030000D01*
X155770000Y-97965000D02*
X146870000Y-97965000D01*
X146870000Y-97965000D02*
X146870000Y-98465000D01*
X148590000Y-99465000D02*
X148590000Y-97965000D01*
X153670000Y-99465000D02*
X153670000Y-97965000D01*
X155770000Y-98465000D02*
X155770000Y-97965000D01*
X156210000Y-104865000D02*
X146050000Y-104865000D01*
X146050000Y-104865000D02*
X146050000Y-96765000D01*
X146050000Y-96765000D02*
X156210000Y-96765000D01*
X156210000Y-96765000D02*
X156210000Y-104865000D01*
X165930000Y-97965000D02*
X157030000Y-97965000D01*
X157030000Y-97965000D02*
X157030000Y-98465000D01*
X158750000Y-99465000D02*
X158750000Y-97965000D01*
X163830000Y-99465000D02*
X163830000Y-97965000D01*
X165930000Y-98465000D02*
X165930000Y-97965000D01*
X166370000Y-104865000D02*
X156210000Y-104865000D01*
X156210000Y-104865000D02*
X156210000Y-96765000D01*
X156210000Y-96765000D02*
X166370000Y-96765000D01*
X166370000Y-96765000D02*
X166370000Y-104865000D01*
X173614080Y-101660960D02*
X168015920Y-101660960D01*
X168214040Y-102158800D02*
X168214040Y-101660960D01*
X173415960Y-101660960D02*
X173415960Y-102158800D01*
X170815000Y-102158800D02*
X170815000Y-101660960D01*
X168015920Y-96359980D02*
X173614080Y-96359980D01*
X168015920Y-102158800D02*
X173614080Y-102158800D01*
X173614080Y-102158800D02*
X173614080Y-95961200D01*
X173614080Y-95961200D02*
X168015920Y-95961200D01*
X168015920Y-95961200D02*
X168015920Y-102158800D01*
X138805920Y-96459040D02*
X144404080Y-96459040D01*
X144205960Y-95961200D02*
X144205960Y-96459040D01*
X139004040Y-96459040D02*
X139004040Y-95961200D01*
X141605000Y-95961200D02*
X141605000Y-96459040D01*
X144404080Y-101760020D02*
X138805920Y-101760020D01*
X144404080Y-95961200D02*
X138805920Y-95961200D01*
X138805920Y-95961200D02*
X138805920Y-102158800D01*
X138805920Y-102158800D02*
X144404080Y-102158800D01*
X144404080Y-102158800D02*
X144404080Y-95961200D01*
D15*
G36*
X171341898Y-119269053D02*
X171340458Y-119459921D01*
X171340334Y-119468623D01*
X171333583Y-119934070D01*
X171274195Y-119985118D01*
X171194251Y-120029807D01*
X171110712Y-120033865D01*
X171030791Y-119997589D01*
X171003485Y-119973908D01*
X170961688Y-119935367D01*
X170942000Y-119927766D01*
X170942000Y-119148792D01*
X170935338Y-119003606D01*
X170914006Y-118892007D01*
X170875985Y-118807181D01*
X170822329Y-118744982D01*
X170735924Y-118694882D01*
X170638728Y-118679518D01*
X170540923Y-118696853D01*
X170452694Y-118744852D01*
X170384224Y-118821479D01*
X170376986Y-118834022D01*
X170354122Y-118902736D01*
X170340320Y-118999279D01*
X170335459Y-119110657D01*
X170339423Y-119223874D01*
X170352092Y-119325938D01*
X170373349Y-119403855D01*
X170382349Y-119422261D01*
X170453342Y-119510490D01*
X170540202Y-119567675D01*
X170634943Y-119591873D01*
X170729581Y-119581136D01*
X170816129Y-119533519D01*
X170821192Y-119529183D01*
X170879978Y-119460541D01*
X170918065Y-119372453D01*
X170937810Y-119257495D01*
X170942000Y-119148792D01*
X170942000Y-119927766D01*
X170930245Y-119923229D01*
X170890456Y-119933107D01*
X170868210Y-119942158D01*
X170807645Y-119958161D01*
X170722773Y-119969109D01*
X170641055Y-119972649D01*
X170542326Y-119968682D01*
X170463340Y-119953629D01*
X170381982Y-119922727D01*
X170358124Y-119911703D01*
X170210772Y-119822487D01*
X170095089Y-119708457D01*
X170010234Y-119568038D01*
X169955366Y-119399654D01*
X169929644Y-119201730D01*
X169927343Y-119104833D01*
X169938511Y-118933444D01*
X169973045Y-118786671D01*
X170034845Y-118651537D01*
X170088959Y-118567353D01*
X170197509Y-118447247D01*
X170325186Y-118360668D01*
X170465947Y-118307105D01*
X170613748Y-118286047D01*
X170762544Y-118296985D01*
X170906291Y-118339407D01*
X171038945Y-118412805D01*
X171154462Y-118516667D01*
X171246798Y-118650482D01*
X171254664Y-118665773D01*
X171283855Y-118732150D01*
X171306321Y-118804103D01*
X171322711Y-118887701D01*
X171333672Y-118989012D01*
X171339852Y-119114106D01*
X171341898Y-119269053D01*
X171341898Y-119269053D01*
X171341898Y-119269053D01*
G37*
X171341898Y-119269053D02*
X171340458Y-119459921D01*
X171340334Y-119468623D01*
X171333583Y-119934070D01*
X171274195Y-119985118D01*
X171194251Y-120029807D01*
X171110712Y-120033865D01*
X171030791Y-119997589D01*
X171003485Y-119973908D01*
X170961688Y-119935367D01*
X170942000Y-119927766D01*
X170942000Y-119148792D01*
X170935338Y-119003606D01*
X170914006Y-118892007D01*
X170875985Y-118807181D01*
X170822329Y-118744982D01*
X170735924Y-118694882D01*
X170638728Y-118679518D01*
X170540923Y-118696853D01*
X170452694Y-118744852D01*
X170384224Y-118821479D01*
X170376986Y-118834022D01*
X170354122Y-118902736D01*
X170340320Y-118999279D01*
X170335459Y-119110657D01*
X170339423Y-119223874D01*
X170352092Y-119325938D01*
X170373349Y-119403855D01*
X170382349Y-119422261D01*
X170453342Y-119510490D01*
X170540202Y-119567675D01*
X170634943Y-119591873D01*
X170729581Y-119581136D01*
X170816129Y-119533519D01*
X170821192Y-119529183D01*
X170879978Y-119460541D01*
X170918065Y-119372453D01*
X170937810Y-119257495D01*
X170942000Y-119148792D01*
X170942000Y-119927766D01*
X170930245Y-119923229D01*
X170890456Y-119933107D01*
X170868210Y-119942158D01*
X170807645Y-119958161D01*
X170722773Y-119969109D01*
X170641055Y-119972649D01*
X170542326Y-119968682D01*
X170463340Y-119953629D01*
X170381982Y-119922727D01*
X170358124Y-119911703D01*
X170210772Y-119822487D01*
X170095089Y-119708457D01*
X170010234Y-119568038D01*
X169955366Y-119399654D01*
X169929644Y-119201730D01*
X169927343Y-119104833D01*
X169938511Y-118933444D01*
X169973045Y-118786671D01*
X170034845Y-118651537D01*
X170088959Y-118567353D01*
X170197509Y-118447247D01*
X170325186Y-118360668D01*
X170465947Y-118307105D01*
X170613748Y-118286047D01*
X170762544Y-118296985D01*
X170906291Y-118339407D01*
X171038945Y-118412805D01*
X171154462Y-118516667D01*
X171246798Y-118650482D01*
X171254664Y-118665773D01*
X171283855Y-118732150D01*
X171306321Y-118804103D01*
X171322711Y-118887701D01*
X171333672Y-118989012D01*
X171339852Y-119114106D01*
X171341898Y-119269053D01*
X171341898Y-119269053D01*
G36*
X167237833Y-119782302D02*
X167220317Y-119847936D01*
X167176097Y-119913875D01*
X167117667Y-119964436D01*
X167079324Y-119981298D01*
X167035954Y-119987501D01*
X166993674Y-119981163D01*
X166948615Y-119958898D01*
X166896908Y-119917318D01*
X166834686Y-119853039D01*
X166758081Y-119762672D01*
X166663225Y-119642832D01*
X166602267Y-119563646D01*
X166518506Y-119455383D01*
X166442455Y-119359418D01*
X166378097Y-119280586D01*
X166329414Y-119223723D01*
X166300387Y-119193667D01*
X166294777Y-119190175D01*
X166267745Y-119203907D01*
X166225732Y-119239310D01*
X166206683Y-119258291D01*
X166179595Y-119287797D01*
X166160990Y-119315237D01*
X166149011Y-119349218D01*
X166141803Y-119398349D01*
X166137509Y-119471235D01*
X166134272Y-119576483D01*
X166133739Y-119596488D01*
X166130311Y-119708405D01*
X166125971Y-119786319D01*
X166119145Y-119838555D01*
X166108257Y-119873438D01*
X166091731Y-119899293D01*
X166072529Y-119919936D01*
X166012636Y-119961484D01*
X165943872Y-119986084D01*
X165943143Y-119986204D01*
X165888476Y-119989095D01*
X165843423Y-119971866D01*
X165796114Y-119934367D01*
X165724417Y-119870305D01*
X165724417Y-118723563D01*
X165724417Y-117576820D01*
X165787917Y-117526015D01*
X165864658Y-117486831D01*
X165948618Y-117478543D01*
X166027651Y-117499228D01*
X166089612Y-117546963D01*
X166108714Y-117576811D01*
X166113689Y-117606772D01*
X166118908Y-117673194D01*
X166124101Y-117770209D01*
X166128999Y-117891948D01*
X166133333Y-118032543D01*
X166136834Y-118186124D01*
X166136950Y-118192296D01*
X166147750Y-118772010D01*
X166501698Y-118452140D01*
X166606796Y-118358683D01*
X166704366Y-118274769D01*
X166789124Y-118204718D01*
X166855788Y-118152848D01*
X166899075Y-118123476D01*
X166909567Y-118118737D01*
X166981527Y-118119128D01*
X167057091Y-118147020D01*
X167116464Y-118194636D01*
X167122260Y-118202293D01*
X167144028Y-118254557D01*
X167153166Y-118318588D01*
X167153167Y-118319014D01*
X167149813Y-118350684D01*
X167137330Y-118383884D01*
X167112087Y-118422725D01*
X167070449Y-118471318D01*
X167008786Y-118533775D01*
X166923464Y-118614207D01*
X166810851Y-118716727D01*
X166766787Y-118756370D01*
X166602657Y-118903750D01*
X166920245Y-119312968D01*
X167027572Y-119452602D01*
X167110050Y-119563193D01*
X167169996Y-119648163D01*
X167209727Y-119710938D01*
X167231560Y-119754941D01*
X167237833Y-119782302D01*
X167237833Y-119782302D01*
X167237833Y-119782302D01*
G37*
X167237833Y-119782302D02*
X167220317Y-119847936D01*
X167176097Y-119913875D01*
X167117667Y-119964436D01*
X167079324Y-119981298D01*
X167035954Y-119987501D01*
X166993674Y-119981163D01*
X166948615Y-119958898D01*
X166896908Y-119917318D01*
X166834686Y-119853039D01*
X166758081Y-119762672D01*
X166663225Y-119642832D01*
X166602267Y-119563646D01*
X166518506Y-119455383D01*
X166442455Y-119359418D01*
X166378097Y-119280586D01*
X166329414Y-119223723D01*
X166300387Y-119193667D01*
X166294777Y-119190175D01*
X166267745Y-119203907D01*
X166225732Y-119239310D01*
X166206683Y-119258291D01*
X166179595Y-119287797D01*
X166160990Y-119315237D01*
X166149011Y-119349218D01*
X166141803Y-119398349D01*
X166137509Y-119471235D01*
X166134272Y-119576483D01*
X166133739Y-119596488D01*
X166130311Y-119708405D01*
X166125971Y-119786319D01*
X166119145Y-119838555D01*
X166108257Y-119873438D01*
X166091731Y-119899293D01*
X166072529Y-119919936D01*
X166012636Y-119961484D01*
X165943872Y-119986084D01*
X165943143Y-119986204D01*
X165888476Y-119989095D01*
X165843423Y-119971866D01*
X165796114Y-119934367D01*
X165724417Y-119870305D01*
X165724417Y-118723563D01*
X165724417Y-117576820D01*
X165787917Y-117526015D01*
X165864658Y-117486831D01*
X165948618Y-117478543D01*
X166027651Y-117499228D01*
X166089612Y-117546963D01*
X166108714Y-117576811D01*
X166113689Y-117606772D01*
X166118908Y-117673194D01*
X166124101Y-117770209D01*
X166128999Y-117891948D01*
X166133333Y-118032543D01*
X166136834Y-118186124D01*
X166136950Y-118192296D01*
X166147750Y-118772010D01*
X166501698Y-118452140D01*
X166606796Y-118358683D01*
X166704366Y-118274769D01*
X166789124Y-118204718D01*
X166855788Y-118152848D01*
X166899075Y-118123476D01*
X166909567Y-118118737D01*
X166981527Y-118119128D01*
X167057091Y-118147020D01*
X167116464Y-118194636D01*
X167122260Y-118202293D01*
X167144028Y-118254557D01*
X167153166Y-118318588D01*
X167153167Y-118319014D01*
X167149813Y-118350684D01*
X167137330Y-118383884D01*
X167112087Y-118422725D01*
X167070449Y-118471318D01*
X167008786Y-118533775D01*
X166923464Y-118614207D01*
X166810851Y-118716727D01*
X166766787Y-118756370D01*
X166602657Y-118903750D01*
X166920245Y-119312968D01*
X167027572Y-119452602D01*
X167110050Y-119563193D01*
X167169996Y-119648163D01*
X167209727Y-119710938D01*
X167231560Y-119754941D01*
X167237833Y-119782302D01*
X167237833Y-119782302D01*
G36*
X167912909Y-118824501D02*
X167911909Y-119014914D01*
X167910900Y-119137904D01*
X167904583Y-119865926D01*
X167851667Y-119918783D01*
X167781735Y-119965763D01*
X167701586Y-119985583D01*
X167629417Y-119974624D01*
X167583581Y-119945277D01*
X167544750Y-119909468D01*
X167533509Y-119895231D01*
X167524397Y-119877133D01*
X167517144Y-119850789D01*
X167511484Y-119811816D01*
X167507148Y-119755828D01*
X167503869Y-119678441D01*
X167501379Y-119575271D01*
X167499409Y-119441933D01*
X167497692Y-119274042D01*
X167496366Y-119117476D01*
X167490316Y-118372511D01*
X167538700Y-118301095D01*
X167604580Y-118231663D01*
X167679798Y-118203233D01*
X167763277Y-118216147D01*
X167781415Y-118223981D01*
X167815595Y-118241741D01*
X167843506Y-118262023D01*
X167865738Y-118288992D01*
X167882880Y-118326813D01*
X167895523Y-118379653D01*
X167904257Y-118451676D01*
X167909673Y-118547048D01*
X167912360Y-118669934D01*
X167912909Y-118824501D01*
X167912909Y-118824501D01*
X167912909Y-118824501D01*
G37*
X167912909Y-118824501D02*
X167911909Y-119014914D01*
X167910900Y-119137904D01*
X167904583Y-119865926D01*
X167851667Y-119918783D01*
X167781735Y-119965763D01*
X167701586Y-119985583D01*
X167629417Y-119974624D01*
X167583581Y-119945277D01*
X167544750Y-119909468D01*
X167533509Y-119895231D01*
X167524397Y-119877133D01*
X167517144Y-119850789D01*
X167511484Y-119811816D01*
X167507148Y-119755828D01*
X167503869Y-119678441D01*
X167501379Y-119575271D01*
X167499409Y-119441933D01*
X167497692Y-119274042D01*
X167496366Y-119117476D01*
X167490316Y-118372511D01*
X167538700Y-118301095D01*
X167604580Y-118231663D01*
X167679798Y-118203233D01*
X167763277Y-118216147D01*
X167781415Y-118223981D01*
X167815595Y-118241741D01*
X167843506Y-118262023D01*
X167865738Y-118288992D01*
X167882880Y-118326813D01*
X167895523Y-118379653D01*
X167904257Y-118451676D01*
X167909673Y-118547048D01*
X167912360Y-118669934D01*
X167912909Y-118824501D01*
X167912909Y-118824501D01*
G36*
X169587333Y-119718577D02*
X169567375Y-119779699D01*
X169512313Y-119837341D01*
X169429365Y-119888951D01*
X169325753Y-119931978D01*
X169208694Y-119963871D01*
X169085408Y-119982079D01*
X168963114Y-119984052D01*
X168870010Y-119972053D01*
X168707708Y-119917410D01*
X168563808Y-119827608D01*
X168444093Y-119707873D01*
X168354344Y-119563425D01*
X168319708Y-119474894D01*
X168272150Y-119261995D01*
X168262006Y-119047987D01*
X168288905Y-118840234D01*
X168352482Y-118646100D01*
X168362235Y-118624752D01*
X168451628Y-118482766D01*
X168570532Y-118366462D01*
X168712534Y-118279127D01*
X168871222Y-118224046D01*
X169040184Y-118204507D01*
X169163500Y-118214114D01*
X169307473Y-118247485D01*
X169423597Y-118295047D01*
X169509405Y-118353865D01*
X169562430Y-118421002D01*
X169580203Y-118493522D01*
X169560258Y-118568489D01*
X169513351Y-118630406D01*
X169459330Y-118668000D01*
X169393516Y-118679277D01*
X169307775Y-118664490D01*
X169232564Y-118639155D01*
X169124319Y-118606137D01*
X169032563Y-118599083D01*
X168941124Y-118617021D01*
X168929033Y-118620932D01*
X168831437Y-118668604D01*
X168759512Y-118739768D01*
X168711258Y-118838277D01*
X168684677Y-118967985D01*
X168677631Y-119105640D01*
X168685701Y-119256483D01*
X168712192Y-119374124D01*
X168759357Y-119464484D01*
X168829449Y-119533485D01*
X168844338Y-119543870D01*
X168931126Y-119579984D01*
X169037909Y-119593059D01*
X169149031Y-119582884D01*
X169248667Y-119549333D01*
X169309943Y-119522838D01*
X169362201Y-119508088D01*
X169373827Y-119507000D01*
X169456805Y-119526228D01*
X169526846Y-119577082D01*
X169573608Y-119649313D01*
X169587333Y-119718577D01*
X169587333Y-119718577D01*
X169587333Y-119718577D01*
G37*
X169587333Y-119718577D02*
X169567375Y-119779699D01*
X169512313Y-119837341D01*
X169429365Y-119888951D01*
X169325753Y-119931978D01*
X169208694Y-119963871D01*
X169085408Y-119982079D01*
X168963114Y-119984052D01*
X168870010Y-119972053D01*
X168707708Y-119917410D01*
X168563808Y-119827608D01*
X168444093Y-119707873D01*
X168354344Y-119563425D01*
X168319708Y-119474894D01*
X168272150Y-119261995D01*
X168262006Y-119047987D01*
X168288905Y-118840234D01*
X168352482Y-118646100D01*
X168362235Y-118624752D01*
X168451628Y-118482766D01*
X168570532Y-118366462D01*
X168712534Y-118279127D01*
X168871222Y-118224046D01*
X169040184Y-118204507D01*
X169163500Y-118214114D01*
X169307473Y-118247485D01*
X169423597Y-118295047D01*
X169509405Y-118353865D01*
X169562430Y-118421002D01*
X169580203Y-118493522D01*
X169560258Y-118568489D01*
X169513351Y-118630406D01*
X169459330Y-118668000D01*
X169393516Y-118679277D01*
X169307775Y-118664490D01*
X169232564Y-118639155D01*
X169124319Y-118606137D01*
X169032563Y-118599083D01*
X168941124Y-118617021D01*
X168929033Y-118620932D01*
X168831437Y-118668604D01*
X168759512Y-118739768D01*
X168711258Y-118838277D01*
X168684677Y-118967985D01*
X168677631Y-119105640D01*
X168685701Y-119256483D01*
X168712192Y-119374124D01*
X168759357Y-119464484D01*
X168829449Y-119533485D01*
X168844338Y-119543870D01*
X168931126Y-119579984D01*
X169037909Y-119593059D01*
X169149031Y-119582884D01*
X169248667Y-119549333D01*
X169309943Y-119522838D01*
X169362201Y-119508088D01*
X169373827Y-119507000D01*
X169456805Y-119526228D01*
X169526846Y-119577082D01*
X169573608Y-119649313D01*
X169587333Y-119718577D01*
X169587333Y-119718577D01*
G36*
X173188202Y-117643612D02*
X173181348Y-118527681D01*
X173179615Y-118744448D01*
X173177932Y-118923221D01*
X173176053Y-119068336D01*
X173173737Y-119184131D01*
X173170738Y-119274943D01*
X173166813Y-119345110D01*
X173161717Y-119398970D01*
X173155208Y-119440859D01*
X173147040Y-119475115D01*
X173136971Y-119506076D01*
X173124755Y-119538078D01*
X173124491Y-119538750D01*
X173063806Y-119668755D01*
X172993618Y-119767882D01*
X172905422Y-119847575D01*
X172883407Y-119863193D01*
X172783500Y-119914286D01*
X172783500Y-119068381D01*
X172783500Y-118783099D01*
X172713430Y-118713029D01*
X172643803Y-118660069D01*
X172563789Y-118621934D01*
X172551309Y-118618173D01*
X172431397Y-118603800D01*
X172326683Y-118627237D01*
X172239546Y-118685944D01*
X172172364Y-118777385D01*
X172127515Y-118899023D01*
X172107378Y-119048321D01*
X172106485Y-119092728D01*
X172120460Y-119250548D01*
X172160035Y-119383353D01*
X172222771Y-119488069D01*
X172306226Y-119561619D01*
X172407961Y-119600929D01*
X172512634Y-119604546D01*
X172585690Y-119585423D01*
X172654039Y-119551065D01*
X172655962Y-119549716D01*
X172703188Y-119509045D01*
X172737565Y-119459676D01*
X172760936Y-119394657D01*
X172775142Y-119307034D01*
X172782026Y-119189855D01*
X172783500Y-119068381D01*
X172783500Y-119914286D01*
X172735508Y-119938830D01*
X172568386Y-119977520D01*
X172384308Y-119978788D01*
X172349583Y-119975009D01*
X172238277Y-119947307D01*
X172117720Y-119895230D01*
X172005307Y-119827297D01*
X171940590Y-119774694D01*
X171897144Y-119723000D01*
X171846751Y-119647406D01*
X171799248Y-119562878D01*
X171792480Y-119549333D01*
X171714696Y-119390583D01*
X171715186Y-119104833D01*
X171716334Y-118981913D01*
X171720089Y-118891189D01*
X171727647Y-118822548D01*
X171740202Y-118765875D01*
X171758951Y-118711057D01*
X171762923Y-118700987D01*
X171845735Y-118547097D01*
X171957011Y-118420455D01*
X172091065Y-118323562D01*
X172242212Y-118258923D01*
X172404767Y-118229040D01*
X172573047Y-118236417D01*
X172725292Y-118277211D01*
X172783500Y-118299452D01*
X172783500Y-117973516D01*
X172783746Y-117849257D01*
X172785185Y-117759817D01*
X172788870Y-117697685D01*
X172795854Y-117655347D01*
X172807189Y-117625291D01*
X172823929Y-117600004D01*
X172838298Y-117582457D01*
X172907150Y-117528977D01*
X172986088Y-117513720D01*
X173066883Y-117536743D01*
X173125062Y-117580472D01*
X173188202Y-117643612D01*
X173188202Y-117643612D01*
X173188202Y-117643612D01*
G37*
X173188202Y-117643612D02*
X173181348Y-118527681D01*
X173179615Y-118744448D01*
X173177932Y-118923221D01*
X173176053Y-119068336D01*
X173173737Y-119184131D01*
X173170738Y-119274943D01*
X173166813Y-119345110D01*
X173161717Y-119398970D01*
X173155208Y-119440859D01*
X173147040Y-119475115D01*
X173136971Y-119506076D01*
X173124755Y-119538078D01*
X173124491Y-119538750D01*
X173063806Y-119668755D01*
X172993618Y-119767882D01*
X172905422Y-119847575D01*
X172883407Y-119863193D01*
X172783500Y-119914286D01*
X172783500Y-119068381D01*
X172783500Y-118783099D01*
X172713430Y-118713029D01*
X172643803Y-118660069D01*
X172563789Y-118621934D01*
X172551309Y-118618173D01*
X172431397Y-118603800D01*
X172326683Y-118627237D01*
X172239546Y-118685944D01*
X172172364Y-118777385D01*
X172127515Y-118899023D01*
X172107378Y-119048321D01*
X172106485Y-119092728D01*
X172120460Y-119250548D01*
X172160035Y-119383353D01*
X172222771Y-119488069D01*
X172306226Y-119561619D01*
X172407961Y-119600929D01*
X172512634Y-119604546D01*
X172585690Y-119585423D01*
X172654039Y-119551065D01*
X172655962Y-119549716D01*
X172703188Y-119509045D01*
X172737565Y-119459676D01*
X172760936Y-119394657D01*
X172775142Y-119307034D01*
X172782026Y-119189855D01*
X172783500Y-119068381D01*
X172783500Y-119914286D01*
X172735508Y-119938830D01*
X172568386Y-119977520D01*
X172384308Y-119978788D01*
X172349583Y-119975009D01*
X172238277Y-119947307D01*
X172117720Y-119895230D01*
X172005307Y-119827297D01*
X171940590Y-119774694D01*
X171897144Y-119723000D01*
X171846751Y-119647406D01*
X171799248Y-119562878D01*
X171792480Y-119549333D01*
X171714696Y-119390583D01*
X171715186Y-119104833D01*
X171716334Y-118981913D01*
X171720089Y-118891189D01*
X171727647Y-118822548D01*
X171740202Y-118765875D01*
X171758951Y-118711057D01*
X171762923Y-118700987D01*
X171845735Y-118547097D01*
X171957011Y-118420455D01*
X172091065Y-118323562D01*
X172242212Y-118258923D01*
X172404767Y-118229040D01*
X172573047Y-118236417D01*
X172725292Y-118277211D01*
X172783500Y-118299452D01*
X172783500Y-117973516D01*
X172783746Y-117849257D01*
X172785185Y-117759817D01*
X172788870Y-117697685D01*
X172795854Y-117655347D01*
X172807189Y-117625291D01*
X172823929Y-117600004D01*
X172838298Y-117582457D01*
X172907150Y-117528977D01*
X172986088Y-117513720D01*
X173066883Y-117536743D01*
X173125062Y-117580472D01*
X173188202Y-117643612D01*
X173188202Y-117643612D01*
G36*
X165269342Y-118446873D02*
X165269337Y-118686676D01*
X165269333Y-118746065D01*
X165269333Y-119828733D01*
X165197367Y-119900699D01*
X165125400Y-119972666D01*
X165036500Y-119972666D01*
X165036500Y-119739833D01*
X165036500Y-118717373D01*
X165036500Y-117694913D01*
X164597292Y-117260230D01*
X164474224Y-117138643D01*
X164351012Y-117017300D01*
X164233704Y-116902129D01*
X164128347Y-116799059D01*
X164040992Y-116714017D01*
X163978167Y-116653394D01*
X163798250Y-116481240D01*
X163052125Y-116480703D01*
X162306000Y-116480166D01*
X162306000Y-118110000D01*
X162306000Y-119739833D01*
X163671250Y-119739833D01*
X165036500Y-119739833D01*
X165036500Y-119972666D01*
X163673700Y-119972666D01*
X162222001Y-119972666D01*
X162152875Y-119910902D01*
X162083750Y-119849139D01*
X162083750Y-118146690D01*
X162083851Y-117830281D01*
X162084184Y-117553595D01*
X162084793Y-117314023D01*
X162085721Y-117108955D01*
X162087013Y-116935781D01*
X162088712Y-116791891D01*
X162090861Y-116674676D01*
X162093506Y-116581527D01*
X162096689Y-116509833D01*
X162100455Y-116456985D01*
X162104847Y-116420373D01*
X162109909Y-116397388D01*
X162113272Y-116389078D01*
X162131011Y-116358892D01*
X162151550Y-116334212D01*
X162179045Y-116314502D01*
X162217654Y-116299227D01*
X162271534Y-116287849D01*
X162344842Y-116279834D01*
X162441734Y-116274644D01*
X162566368Y-116271745D01*
X162722900Y-116270599D01*
X162915488Y-116270671D01*
X163028865Y-116271004D01*
X163205072Y-116271959D01*
X163369712Y-116273547D01*
X163517525Y-116275665D01*
X163643252Y-116278210D01*
X163741634Y-116281077D01*
X163807412Y-116284163D01*
X163833753Y-116286879D01*
X163850227Y-116291484D01*
X163867784Y-116299048D01*
X163889292Y-116312146D01*
X163917621Y-116333353D01*
X163955640Y-116365244D01*
X164006217Y-116410395D01*
X164072220Y-116471381D01*
X164156520Y-116550776D01*
X164261984Y-116651157D01*
X164391481Y-116775099D01*
X164547881Y-116925176D01*
X164592000Y-116967541D01*
X164713165Y-117083707D01*
X164827605Y-117193066D01*
X164930909Y-117291429D01*
X165018663Y-117374607D01*
X165086455Y-117438411D01*
X165129873Y-117478652D01*
X165139169Y-117486988D01*
X165167453Y-117511576D01*
X165191316Y-117534143D01*
X165211133Y-117558317D01*
X165227281Y-117587727D01*
X165240133Y-117626000D01*
X165250065Y-117676765D01*
X165257452Y-117743650D01*
X165262669Y-117830284D01*
X165266092Y-117940295D01*
X165268095Y-118077311D01*
X165269053Y-118244961D01*
X165269342Y-118446873D01*
X165269342Y-118446873D01*
X165269342Y-118446873D01*
G37*
X165269342Y-118446873D02*
X165269337Y-118686676D01*
X165269333Y-118746065D01*
X165269333Y-119828733D01*
X165197367Y-119900699D01*
X165125400Y-119972666D01*
X165036500Y-119972666D01*
X165036500Y-119739833D01*
X165036500Y-118717373D01*
X165036500Y-117694913D01*
X164597292Y-117260230D01*
X164474224Y-117138643D01*
X164351012Y-117017300D01*
X164233704Y-116902129D01*
X164128347Y-116799059D01*
X164040992Y-116714017D01*
X163978167Y-116653394D01*
X163798250Y-116481240D01*
X163052125Y-116480703D01*
X162306000Y-116480166D01*
X162306000Y-118110000D01*
X162306000Y-119739833D01*
X163671250Y-119739833D01*
X165036500Y-119739833D01*
X165036500Y-119972666D01*
X163673700Y-119972666D01*
X162222001Y-119972666D01*
X162152875Y-119910902D01*
X162083750Y-119849139D01*
X162083750Y-118146690D01*
X162083851Y-117830281D01*
X162084184Y-117553595D01*
X162084793Y-117314023D01*
X162085721Y-117108955D01*
X162087013Y-116935781D01*
X162088712Y-116791891D01*
X162090861Y-116674676D01*
X162093506Y-116581527D01*
X162096689Y-116509833D01*
X162100455Y-116456985D01*
X162104847Y-116420373D01*
X162109909Y-116397388D01*
X162113272Y-116389078D01*
X162131011Y-116358892D01*
X162151550Y-116334212D01*
X162179045Y-116314502D01*
X162217654Y-116299227D01*
X162271534Y-116287849D01*
X162344842Y-116279834D01*
X162441734Y-116274644D01*
X162566368Y-116271745D01*
X162722900Y-116270599D01*
X162915488Y-116270671D01*
X163028865Y-116271004D01*
X163205072Y-116271959D01*
X163369712Y-116273547D01*
X163517525Y-116275665D01*
X163643252Y-116278210D01*
X163741634Y-116281077D01*
X163807412Y-116284163D01*
X163833753Y-116286879D01*
X163850227Y-116291484D01*
X163867784Y-116299048D01*
X163889292Y-116312146D01*
X163917621Y-116333353D01*
X163955640Y-116365244D01*
X164006217Y-116410395D01*
X164072220Y-116471381D01*
X164156520Y-116550776D01*
X164261984Y-116651157D01*
X164391481Y-116775099D01*
X164547881Y-116925176D01*
X164592000Y-116967541D01*
X164713165Y-117083707D01*
X164827605Y-117193066D01*
X164930909Y-117291429D01*
X165018663Y-117374607D01*
X165086455Y-117438411D01*
X165129873Y-117478652D01*
X165139169Y-117486988D01*
X165167453Y-117511576D01*
X165191316Y-117534143D01*
X165211133Y-117558317D01*
X165227281Y-117587727D01*
X165240133Y-117626000D01*
X165250065Y-117676765D01*
X165257452Y-117743650D01*
X165262669Y-117830284D01*
X165266092Y-117940295D01*
X165268095Y-118077311D01*
X165269053Y-118244961D01*
X165269342Y-118446873D01*
X165269342Y-118446873D01*
G36*
X167901117Y-117642876D02*
X167901070Y-117728914D01*
X167871389Y-117808634D01*
X167819077Y-117865186D01*
X167740059Y-117894204D01*
X167652482Y-117891934D01*
X167574934Y-117859130D01*
X167569558Y-117855082D01*
X167516840Y-117790629D01*
X167497232Y-117714338D01*
X167507193Y-117635560D01*
X167543184Y-117563645D01*
X167601665Y-117507943D01*
X167679095Y-117477805D01*
X167713455Y-117475000D01*
X167774299Y-117492799D01*
X167835539Y-117537815D01*
X167883119Y-117597474D01*
X167901117Y-117642876D01*
X167901117Y-117642876D01*
X167901117Y-117642876D01*
G37*
X167901117Y-117642876D02*
X167901070Y-117728914D01*
X167871389Y-117808634D01*
X167819077Y-117865186D01*
X167740059Y-117894204D01*
X167652482Y-117891934D01*
X167574934Y-117859130D01*
X167569558Y-117855082D01*
X167516840Y-117790629D01*
X167497232Y-117714338D01*
X167507193Y-117635560D01*
X167543184Y-117563645D01*
X167601665Y-117507943D01*
X167679095Y-117477805D01*
X167713455Y-117475000D01*
X167774299Y-117492799D01*
X167835539Y-117537815D01*
X167883119Y-117597474D01*
X167901117Y-117642876D01*
X167901117Y-117642876D01*
G36*
X165269333Y-116748050D02*
X165269057Y-116885365D01*
X165267827Y-116986376D01*
X165265040Y-117057112D01*
X165260090Y-117103603D01*
X165252374Y-117131877D01*
X165241288Y-117147962D01*
X165228391Y-117156755D01*
X165194955Y-117171803D01*
X165162676Y-117177042D01*
X165127184Y-117169573D01*
X165084105Y-117146492D01*
X165029068Y-117104898D01*
X164957699Y-117041891D01*
X164865627Y-116954568D01*
X164748478Y-116840028D01*
X164743076Y-116834708D01*
X164642088Y-116735355D01*
X164550115Y-116645072D01*
X164471804Y-116568406D01*
X164411805Y-116509905D01*
X164374766Y-116474114D01*
X164365917Y-116465803D01*
X164341197Y-116420061D01*
X164339498Y-116361521D01*
X164359127Y-116309569D01*
X164381367Y-116289113D01*
X164422618Y-116279837D01*
X164504679Y-116273859D01*
X164626151Y-116271232D01*
X164785637Y-116272009D01*
X164817030Y-116272493D01*
X164955972Y-116275145D01*
X165058677Y-116278215D01*
X165131240Y-116282390D01*
X165179756Y-116288359D01*
X165210319Y-116296810D01*
X165229026Y-116308432D01*
X165239329Y-116320170D01*
X165250649Y-116345414D01*
X165258920Y-116389226D01*
X165264519Y-116457015D01*
X165267828Y-116554191D01*
X165269225Y-116686165D01*
X165269333Y-116748050D01*
X165269333Y-116748050D01*
X165269333Y-116748050D01*
G37*
X165269333Y-116748050D02*
X165269057Y-116885365D01*
X165267827Y-116986376D01*
X165265040Y-117057112D01*
X165260090Y-117103603D01*
X165252374Y-117131877D01*
X165241288Y-117147962D01*
X165228391Y-117156755D01*
X165194955Y-117171803D01*
X165162676Y-117177042D01*
X165127184Y-117169573D01*
X165084105Y-117146492D01*
X165029068Y-117104898D01*
X164957699Y-117041891D01*
X164865627Y-116954568D01*
X164748478Y-116840028D01*
X164743076Y-116834708D01*
X164642088Y-116735355D01*
X164550115Y-116645072D01*
X164471804Y-116568406D01*
X164411805Y-116509905D01*
X164374766Y-116474114D01*
X164365917Y-116465803D01*
X164341197Y-116420061D01*
X164339498Y-116361521D01*
X164359127Y-116309569D01*
X164381367Y-116289113D01*
X164422618Y-116279837D01*
X164504679Y-116273859D01*
X164626151Y-116271232D01*
X164785637Y-116272009D01*
X164817030Y-116272493D01*
X164955972Y-116275145D01*
X165058677Y-116278215D01*
X165131240Y-116282390D01*
X165179756Y-116288359D01*
X165210319Y-116296810D01*
X165229026Y-116308432D01*
X165239329Y-116320170D01*
X165250649Y-116345414D01*
X165258920Y-116389226D01*
X165264519Y-116457015D01*
X165267828Y-116554191D01*
X165269225Y-116686165D01*
X165269333Y-116748050D01*
X165269333Y-116748050D01*
G36*
X164888333Y-118893166D02*
X164886699Y-118907392D01*
X164878204Y-118918014D01*
X164857459Y-118925557D01*
X164819076Y-118930548D01*
X164757667Y-118933511D01*
X164667842Y-118934972D01*
X164544214Y-118935458D01*
X164454417Y-118935500D01*
X164020500Y-118935500D01*
X164020500Y-119189500D01*
X164020084Y-119296720D01*
X164018059Y-119368625D01*
X164013254Y-119412229D01*
X164004501Y-119434548D01*
X163990629Y-119442597D01*
X163978167Y-119443500D01*
X163961415Y-119441301D01*
X163949781Y-119430369D01*
X163942335Y-119404198D01*
X163938150Y-119356282D01*
X163936294Y-119280115D01*
X163935838Y-119169192D01*
X163935833Y-119147166D01*
X163935833Y-118850833D01*
X164412083Y-118850833D01*
X164565757Y-118850968D01*
X164682242Y-118851680D01*
X164766685Y-118853424D01*
X164824230Y-118856659D01*
X164860022Y-118861842D01*
X164879206Y-118869431D01*
X164886928Y-118879881D01*
X164888333Y-118893166D01*
X164888333Y-118893166D01*
X164888333Y-118893166D01*
G37*
X164888333Y-118893166D02*
X164886699Y-118907392D01*
X164878204Y-118918014D01*
X164857459Y-118925557D01*
X164819076Y-118930548D01*
X164757667Y-118933511D01*
X164667842Y-118934972D01*
X164544214Y-118935458D01*
X164454417Y-118935500D01*
X164020500Y-118935500D01*
X164020500Y-119189500D01*
X164020084Y-119296720D01*
X164018059Y-119368625D01*
X164013254Y-119412229D01*
X164004501Y-119434548D01*
X163990629Y-119442597D01*
X163978167Y-119443500D01*
X163961415Y-119441301D01*
X163949781Y-119430369D01*
X163942335Y-119404198D01*
X163938150Y-119356282D01*
X163936294Y-119280115D01*
X163935838Y-119169192D01*
X163935833Y-119147166D01*
X163935833Y-118850833D01*
X164412083Y-118850833D01*
X164565757Y-118850968D01*
X164682242Y-118851680D01*
X164766685Y-118853424D01*
X164824230Y-118856659D01*
X164860022Y-118861842D01*
X164879206Y-118869431D01*
X164886928Y-118879881D01*
X164888333Y-118893166D01*
X164888333Y-118893166D01*
G36*
X164909557Y-118143139D02*
X164797738Y-118253569D01*
X164738919Y-118310155D01*
X164696043Y-118343104D01*
X164693823Y-118343957D01*
X164693823Y-118151556D01*
X164686768Y-118118407D01*
X164684525Y-118114722D01*
X164667511Y-118098158D01*
X164636016Y-118086772D01*
X164582402Y-118079312D01*
X164499034Y-118074525D01*
X164425701Y-118072265D01*
X164189833Y-118066280D01*
X164189833Y-118141056D01*
X164189833Y-118215833D01*
X164406792Y-118215160D01*
X164520282Y-118212689D01*
X164598339Y-118205547D01*
X164647687Y-118192893D01*
X164665616Y-118182840D01*
X164693823Y-118151556D01*
X164693823Y-118343957D01*
X164655210Y-118358805D01*
X164602522Y-118363647D01*
X164557544Y-118364000D01*
X164474591Y-118362384D01*
X164369123Y-118358096D01*
X164260814Y-118351977D01*
X164235418Y-118350247D01*
X164041667Y-118336494D01*
X164041667Y-118275612D01*
X164041667Y-118214730D01*
X163718875Y-118220573D01*
X163396083Y-118226416D01*
X163395366Y-118295263D01*
X163388679Y-118337565D01*
X163365610Y-118381928D01*
X163320260Y-118437492D01*
X163269029Y-118491054D01*
X163143408Y-118618000D01*
X163267904Y-118743808D01*
X163326034Y-118804106D01*
X163364473Y-118852462D01*
X163387421Y-118900394D01*
X163399080Y-118959418D01*
X163403652Y-119041052D01*
X163404903Y-119119367D01*
X163406667Y-119271484D01*
X163475458Y-119278117D01*
X163523131Y-119287662D01*
X163541629Y-119312366D01*
X163544250Y-119348250D01*
X163544250Y-119411750D01*
X163348458Y-119417835D01*
X163152667Y-119423921D01*
X163152667Y-119349044D01*
X163156111Y-119298922D01*
X163173671Y-119278224D01*
X163216167Y-119274166D01*
X163279667Y-119274166D01*
X163279667Y-119108793D01*
X163278474Y-119023664D01*
X163272734Y-118968704D01*
X163259202Y-118931765D01*
X163234634Y-118900704D01*
X163220300Y-118886543D01*
X163171749Y-118843972D01*
X163144808Y-118834629D01*
X163133440Y-118859684D01*
X163131500Y-118903750D01*
X163127931Y-118953541D01*
X163110009Y-118973962D01*
X163068927Y-118977833D01*
X163006354Y-118977833D01*
X163000135Y-118824375D01*
X162993917Y-118670916D01*
X162745208Y-118664953D01*
X162496500Y-118658989D01*
X162496500Y-118596161D01*
X162496500Y-118533333D01*
X162750500Y-118533333D01*
X163004500Y-118533333D01*
X163004500Y-118385166D01*
X163004500Y-118237000D01*
X163068000Y-118237000D01*
X163108717Y-118240343D01*
X163126817Y-118258461D01*
X163131400Y-118303486D01*
X163131500Y-118321666D01*
X163135974Y-118382136D01*
X163152124Y-118402759D01*
X163184036Y-118385337D01*
X163212477Y-118357344D01*
X163234154Y-118329640D01*
X163247784Y-118295889D01*
X163255169Y-118246139D01*
X163258114Y-118170438D01*
X163258500Y-118103344D01*
X163258500Y-117898333D01*
X163195000Y-117898333D01*
X163131500Y-117898333D01*
X163131500Y-117559666D01*
X163131500Y-117221000D01*
X163192644Y-117221000D01*
X163234896Y-117215317D01*
X163256657Y-117190006D01*
X163267968Y-117145414D01*
X163273930Y-117089692D01*
X163277556Y-117006535D01*
X163278305Y-116910801D01*
X163277755Y-116875539D01*
X163273361Y-116681250D01*
X163340014Y-116674617D01*
X163406667Y-116667984D01*
X163406667Y-116944492D01*
X163406667Y-117221000D01*
X163470167Y-117221000D01*
X163533667Y-117221000D01*
X163533667Y-117558325D01*
X163533667Y-117895651D01*
X163464875Y-117902283D01*
X163421314Y-117909924D01*
X163406667Y-117923912D01*
X163406667Y-117771333D01*
X163406667Y-117559666D01*
X163406667Y-117348000D01*
X163343167Y-117348000D01*
X163279667Y-117348000D01*
X163279667Y-117559666D01*
X163279667Y-117771333D01*
X163343167Y-117771333D01*
X163406667Y-117771333D01*
X163406667Y-117923912D01*
X163400145Y-117930141D01*
X163391438Y-117975668D01*
X163389574Y-117998875D01*
X163383066Y-118088833D01*
X163712366Y-118088833D01*
X164041667Y-118088833D01*
X164041667Y-118004166D01*
X164041667Y-117919500D01*
X164365181Y-117919500D01*
X164688696Y-117919500D01*
X164799127Y-118031319D01*
X164909557Y-118143139D01*
X164909557Y-118143139D01*
X164909557Y-118143139D01*
G37*
X164909557Y-118143139D02*
X164797738Y-118253569D01*
X164738919Y-118310155D01*
X164696043Y-118343104D01*
X164693823Y-118343957D01*
X164693823Y-118151556D01*
X164686768Y-118118407D01*
X164684525Y-118114722D01*
X164667511Y-118098158D01*
X164636016Y-118086772D01*
X164582402Y-118079312D01*
X164499034Y-118074525D01*
X164425701Y-118072265D01*
X164189833Y-118066280D01*
X164189833Y-118141056D01*
X164189833Y-118215833D01*
X164406792Y-118215160D01*
X164520282Y-118212689D01*
X164598339Y-118205547D01*
X164647687Y-118192893D01*
X164665616Y-118182840D01*
X164693823Y-118151556D01*
X164693823Y-118343957D01*
X164655210Y-118358805D01*
X164602522Y-118363647D01*
X164557544Y-118364000D01*
X164474591Y-118362384D01*
X164369123Y-118358096D01*
X164260814Y-118351977D01*
X164235418Y-118350247D01*
X164041667Y-118336494D01*
X164041667Y-118275612D01*
X164041667Y-118214730D01*
X163718875Y-118220573D01*
X163396083Y-118226416D01*
X163395366Y-118295263D01*
X163388679Y-118337565D01*
X163365610Y-118381928D01*
X163320260Y-118437492D01*
X163269029Y-118491054D01*
X163143408Y-118618000D01*
X163267904Y-118743808D01*
X163326034Y-118804106D01*
X163364473Y-118852462D01*
X163387421Y-118900394D01*
X163399080Y-118959418D01*
X163403652Y-119041052D01*
X163404903Y-119119367D01*
X163406667Y-119271484D01*
X163475458Y-119278117D01*
X163523131Y-119287662D01*
X163541629Y-119312366D01*
X163544250Y-119348250D01*
X163544250Y-119411750D01*
X163348458Y-119417835D01*
X163152667Y-119423921D01*
X163152667Y-119349044D01*
X163156111Y-119298922D01*
X163173671Y-119278224D01*
X163216167Y-119274166D01*
X163279667Y-119274166D01*
X163279667Y-119108793D01*
X163278474Y-119023664D01*
X163272734Y-118968704D01*
X163259202Y-118931765D01*
X163234634Y-118900704D01*
X163220300Y-118886543D01*
X163171749Y-118843972D01*
X163144808Y-118834629D01*
X163133440Y-118859684D01*
X163131500Y-118903750D01*
X163127931Y-118953541D01*
X163110009Y-118973962D01*
X163068927Y-118977833D01*
X163006354Y-118977833D01*
X163000135Y-118824375D01*
X162993917Y-118670916D01*
X162745208Y-118664953D01*
X162496500Y-118658989D01*
X162496500Y-118596161D01*
X162496500Y-118533333D01*
X162750500Y-118533333D01*
X163004500Y-118533333D01*
X163004500Y-118385166D01*
X163004500Y-118237000D01*
X163068000Y-118237000D01*
X163108717Y-118240343D01*
X163126817Y-118258461D01*
X163131400Y-118303486D01*
X163131500Y-118321666D01*
X163135974Y-118382136D01*
X163152124Y-118402759D01*
X163184036Y-118385337D01*
X163212477Y-118357344D01*
X163234154Y-118329640D01*
X163247784Y-118295889D01*
X163255169Y-118246139D01*
X163258114Y-118170438D01*
X163258500Y-118103344D01*
X163258500Y-117898333D01*
X163195000Y-117898333D01*
X163131500Y-117898333D01*
X163131500Y-117559666D01*
X163131500Y-117221000D01*
X163192644Y-117221000D01*
X163234896Y-117215317D01*
X163256657Y-117190006D01*
X163267968Y-117145414D01*
X163273930Y-117089692D01*
X163277556Y-117006535D01*
X163278305Y-116910801D01*
X163277755Y-116875539D01*
X163273361Y-116681250D01*
X163340014Y-116674617D01*
X163406667Y-116667984D01*
X163406667Y-116944492D01*
X163406667Y-117221000D01*
X163470167Y-117221000D01*
X163533667Y-117221000D01*
X163533667Y-117558325D01*
X163533667Y-117895651D01*
X163464875Y-117902283D01*
X163421314Y-117909924D01*
X163406667Y-117923912D01*
X163406667Y-117771333D01*
X163406667Y-117559666D01*
X163406667Y-117348000D01*
X163343167Y-117348000D01*
X163279667Y-117348000D01*
X163279667Y-117559666D01*
X163279667Y-117771333D01*
X163343167Y-117771333D01*
X163406667Y-117771333D01*
X163406667Y-117923912D01*
X163400145Y-117930141D01*
X163391438Y-117975668D01*
X163389574Y-117998875D01*
X163383066Y-118088833D01*
X163712366Y-118088833D01*
X164041667Y-118088833D01*
X164041667Y-118004166D01*
X164041667Y-117919500D01*
X164365181Y-117919500D01*
X164688696Y-117919500D01*
X164799127Y-118031319D01*
X164909557Y-118143139D01*
X164909557Y-118143139D01*
G36*
X164867167Y-119422333D02*
X164740167Y-119422333D01*
X164613167Y-119422333D01*
X164613167Y-119348250D01*
X164613167Y-119274166D01*
X164740167Y-119274166D01*
X164867167Y-119274166D01*
X164867167Y-119348250D01*
X164867167Y-119422333D01*
X164867167Y-119422333D01*
X164867167Y-119422333D01*
G37*
X164867167Y-119422333D02*
X164740167Y-119422333D01*
X164613167Y-119422333D01*
X164613167Y-119348250D01*
X164613167Y-119274166D01*
X164740167Y-119274166D01*
X164867167Y-119274166D01*
X164867167Y-119348250D01*
X164867167Y-119422333D01*
X164867167Y-119422333D01*
G36*
X164338000Y-119348250D02*
X164335587Y-119376695D01*
X164321974Y-119392539D01*
X164287595Y-119399460D01*
X164222887Y-119401136D01*
X164200417Y-119401166D01*
X164126458Y-119400238D01*
X164085263Y-119395002D01*
X164067270Y-119381780D01*
X164062913Y-119356892D01*
X164062833Y-119348250D01*
X164065246Y-119319804D01*
X164078859Y-119303960D01*
X164113238Y-119297039D01*
X164177946Y-119295363D01*
X164200417Y-119295333D01*
X164274375Y-119296261D01*
X164315570Y-119301497D01*
X164333563Y-119314719D01*
X164337920Y-119339607D01*
X164338000Y-119348250D01*
X164338000Y-119348250D01*
X164338000Y-119348250D01*
G37*
X164338000Y-119348250D02*
X164335587Y-119376695D01*
X164321974Y-119392539D01*
X164287595Y-119399460D01*
X164222887Y-119401136D01*
X164200417Y-119401166D01*
X164126458Y-119400238D01*
X164085263Y-119395002D01*
X164067270Y-119381780D01*
X164062913Y-119356892D01*
X164062833Y-119348250D01*
X164065246Y-119319804D01*
X164078859Y-119303960D01*
X164113238Y-119297039D01*
X164177946Y-119295363D01*
X164200417Y-119295333D01*
X164274375Y-119296261D01*
X164315570Y-119301497D01*
X164333563Y-119314719D01*
X164337920Y-119339607D01*
X164338000Y-119348250D01*
X164338000Y-119348250D01*
G36*
X164338000Y-119051916D02*
X164335311Y-119081243D01*
X164320617Y-119097077D01*
X164283977Y-119103559D01*
X164215451Y-119104832D01*
X164211000Y-119104833D01*
X164140615Y-119103712D01*
X164102614Y-119097590D01*
X164087057Y-119082323D01*
X164084003Y-119053771D01*
X164084000Y-119051916D01*
X164086689Y-119022589D01*
X164101383Y-119006755D01*
X164138023Y-119000273D01*
X164206548Y-118999001D01*
X164211000Y-118999000D01*
X164281385Y-119000120D01*
X164319386Y-119006242D01*
X164334943Y-119021509D01*
X164337997Y-119050061D01*
X164338000Y-119051916D01*
X164338000Y-119051916D01*
X164338000Y-119051916D01*
G37*
X164338000Y-119051916D02*
X164335311Y-119081243D01*
X164320617Y-119097077D01*
X164283977Y-119103559D01*
X164215451Y-119104832D01*
X164211000Y-119104833D01*
X164140615Y-119103712D01*
X164102614Y-119097590D01*
X164087057Y-119082323D01*
X164084003Y-119053771D01*
X164084000Y-119051916D01*
X164086689Y-119022589D01*
X164101383Y-119006755D01*
X164138023Y-119000273D01*
X164206548Y-118999001D01*
X164211000Y-118999000D01*
X164281385Y-119000120D01*
X164319386Y-119006242D01*
X164334943Y-119021509D01*
X164337997Y-119050061D01*
X164338000Y-119051916D01*
X164338000Y-119051916D01*
G36*
X164864609Y-119079684D02*
X164855411Y-119093676D01*
X164827942Y-119101192D01*
X164774393Y-119104242D01*
X164686955Y-119104832D01*
X164678139Y-119104833D01*
X164587543Y-119104438D01*
X164531165Y-119101738D01*
X164500889Y-119094462D01*
X164488599Y-119080337D01*
X164486180Y-119057092D01*
X164486167Y-119051092D01*
X164486167Y-118997351D01*
X164671375Y-119003467D01*
X164760448Y-119007141D01*
X164815728Y-119012570D01*
X164845749Y-119022143D01*
X164859047Y-119038250D01*
X164863347Y-119057208D01*
X164864609Y-119079684D01*
X164864609Y-119079684D01*
X164864609Y-119079684D01*
G37*
X164864609Y-119079684D02*
X164855411Y-119093676D01*
X164827942Y-119101192D01*
X164774393Y-119104242D01*
X164686955Y-119104832D01*
X164678139Y-119104833D01*
X164587543Y-119104438D01*
X164531165Y-119101738D01*
X164500889Y-119094462D01*
X164488599Y-119080337D01*
X164486180Y-119057092D01*
X164486167Y-119051092D01*
X164486167Y-118997351D01*
X164671375Y-119003467D01*
X164760448Y-119007141D01*
X164815728Y-119012570D01*
X164845749Y-119022143D01*
X164859047Y-119038250D01*
X164863347Y-119057208D01*
X164864609Y-119079684D01*
X164864609Y-119079684D01*
G36*
X144909378Y-116096418D02*
X144907238Y-116690076D01*
X144907000Y-116874945D01*
X144905032Y-117515217D01*
X144898365Y-118005453D01*
X144885856Y-118364914D01*
X144866361Y-118612861D01*
X144838735Y-118768554D01*
X144801835Y-118851252D01*
X144788831Y-118864670D01*
X144621596Y-118936142D01*
X144483667Y-118966474D01*
X144483667Y-118512748D01*
X144483667Y-116919371D01*
X144479611Y-116398909D01*
X144468250Y-115949332D01*
X144450795Y-115595665D01*
X144428453Y-115362937D01*
X144404275Y-115276926D01*
X144292827Y-115246092D01*
X144050552Y-115199619D01*
X143714493Y-115144095D01*
X143367108Y-115092485D01*
X142738640Y-115030536D01*
X142011051Y-115002245D01*
X141241137Y-115006497D01*
X140485692Y-115042179D01*
X139801514Y-115108176D01*
X139403667Y-115170237D01*
X138853333Y-115274859D01*
X138830366Y-116896143D01*
X138807399Y-118517426D01*
X139380699Y-118608198D01*
X139716613Y-118660928D01*
X140021424Y-118708002D01*
X140208000Y-118736091D01*
X140448169Y-118753739D01*
X140819525Y-118760161D01*
X141284383Y-118756617D01*
X141805057Y-118744364D01*
X142343862Y-118724660D01*
X142863112Y-118698761D01*
X143325122Y-118667926D01*
X143692206Y-118633412D01*
X143827500Y-118615306D01*
X144483667Y-118512748D01*
X144483667Y-118966474D01*
X144312275Y-119004166D01*
X143888113Y-119066037D01*
X143376356Y-119119051D01*
X142804249Y-119160504D01*
X142199039Y-119187692D01*
X141587969Y-119197910D01*
X141435667Y-119197483D01*
X140950669Y-119192260D01*
X140511889Y-119184201D01*
X140153154Y-119174183D01*
X139908292Y-119163080D01*
X139827000Y-119155816D01*
X139320428Y-119072236D01*
X138912639Y-118989708D01*
X138627462Y-118913632D01*
X138493500Y-118853674D01*
X138456465Y-118775849D01*
X138428306Y-118600790D01*
X138408198Y-118313075D01*
X138395317Y-117897284D01*
X138388837Y-117337996D01*
X138387667Y-116874945D01*
X138388618Y-116258599D01*
X138392577Y-115790164D01*
X138401200Y-115448224D01*
X138416144Y-115211362D01*
X138439066Y-115058160D01*
X138471622Y-114967203D01*
X138515468Y-114917073D01*
X138540312Y-114901597D01*
X138806200Y-114808179D01*
X139211761Y-114728175D01*
X139727773Y-114662830D01*
X140325015Y-114613389D01*
X140974264Y-114581099D01*
X141646298Y-114567204D01*
X142311896Y-114572950D01*
X142941834Y-114599582D01*
X143506891Y-114648346D01*
X143745193Y-114679783D01*
X144110658Y-114731423D01*
X144390762Y-114776352D01*
X144596766Y-114835847D01*
X144739929Y-114931182D01*
X144831512Y-115083632D01*
X144882775Y-115314471D01*
X144904977Y-115644975D01*
X144909378Y-116096418D01*
X144909378Y-116096418D01*
X144909378Y-116096418D01*
G37*
X144909378Y-116096418D02*
X144907238Y-116690076D01*
X144907000Y-116874945D01*
X144905032Y-117515217D01*
X144898365Y-118005453D01*
X144885856Y-118364914D01*
X144866361Y-118612861D01*
X144838735Y-118768554D01*
X144801835Y-118851252D01*
X144788831Y-118864670D01*
X144621596Y-118936142D01*
X144483667Y-118966474D01*
X144483667Y-118512748D01*
X144483667Y-116919371D01*
X144479611Y-116398909D01*
X144468250Y-115949332D01*
X144450795Y-115595665D01*
X144428453Y-115362937D01*
X144404275Y-115276926D01*
X144292827Y-115246092D01*
X144050552Y-115199619D01*
X143714493Y-115144095D01*
X143367108Y-115092485D01*
X142738640Y-115030536D01*
X142011051Y-115002245D01*
X141241137Y-115006497D01*
X140485692Y-115042179D01*
X139801514Y-115108176D01*
X139403667Y-115170237D01*
X138853333Y-115274859D01*
X138830366Y-116896143D01*
X138807399Y-118517426D01*
X139380699Y-118608198D01*
X139716613Y-118660928D01*
X140021424Y-118708002D01*
X140208000Y-118736091D01*
X140448169Y-118753739D01*
X140819525Y-118760161D01*
X141284383Y-118756617D01*
X141805057Y-118744364D01*
X142343862Y-118724660D01*
X142863112Y-118698761D01*
X143325122Y-118667926D01*
X143692206Y-118633412D01*
X143827500Y-118615306D01*
X144483667Y-118512748D01*
X144483667Y-118966474D01*
X144312275Y-119004166D01*
X143888113Y-119066037D01*
X143376356Y-119119051D01*
X142804249Y-119160504D01*
X142199039Y-119187692D01*
X141587969Y-119197910D01*
X141435667Y-119197483D01*
X140950669Y-119192260D01*
X140511889Y-119184201D01*
X140153154Y-119174183D01*
X139908292Y-119163080D01*
X139827000Y-119155816D01*
X139320428Y-119072236D01*
X138912639Y-118989708D01*
X138627462Y-118913632D01*
X138493500Y-118853674D01*
X138456465Y-118775849D01*
X138428306Y-118600790D01*
X138408198Y-118313075D01*
X138395317Y-117897284D01*
X138388837Y-117337996D01*
X138387667Y-116874945D01*
X138388618Y-116258599D01*
X138392577Y-115790164D01*
X138401200Y-115448224D01*
X138416144Y-115211362D01*
X138439066Y-115058160D01*
X138471622Y-114967203D01*
X138515468Y-114917073D01*
X138540312Y-114901597D01*
X138806200Y-114808179D01*
X139211761Y-114728175D01*
X139727773Y-114662830D01*
X140325015Y-114613389D01*
X140974264Y-114581099D01*
X141646298Y-114567204D01*
X142311896Y-114572950D01*
X142941834Y-114599582D01*
X143506891Y-114648346D01*
X143745193Y-114679783D01*
X144110658Y-114731423D01*
X144390762Y-114776352D01*
X144596766Y-114835847D01*
X144739929Y-114931182D01*
X144831512Y-115083632D01*
X144882775Y-115314471D01*
X144904977Y-115644975D01*
X144909378Y-116096418D01*
X144909378Y-116096418D01*
G36*
X141947670Y-117241396D02*
X141900189Y-117624950D01*
X141735447Y-117974481D01*
X141461161Y-118243811D01*
X141319903Y-118317168D01*
X141131567Y-118367105D01*
X140860715Y-118398878D01*
X140471911Y-118417742D01*
X140250333Y-118423393D01*
X139853939Y-118427691D01*
X139515647Y-118423729D01*
X139273870Y-118412450D01*
X139170833Y-118396953D01*
X139081971Y-118279885D01*
X139073884Y-118101760D01*
X139141694Y-117947596D01*
X139198925Y-117907391D01*
X139337727Y-117885378D01*
X139601799Y-117868077D01*
X139947093Y-117857813D01*
X140172591Y-117856000D01*
X140654135Y-117840429D01*
X140990671Y-117786481D01*
X141204272Y-117683299D01*
X141317013Y-117520028D01*
X141350967Y-117285811D01*
X141351000Y-117276455D01*
X141284502Y-117012492D01*
X141079858Y-116825644D01*
X140729342Y-116710320D01*
X140527924Y-116680904D01*
X140252361Y-116645063D01*
X140105693Y-116599056D01*
X140047873Y-116521255D01*
X140038667Y-116416666D01*
X140049631Y-116302268D01*
X140107964Y-116235955D01*
X140251824Y-116201166D01*
X140519369Y-116181341D01*
X140589000Y-116177817D01*
X141005280Y-116181844D01*
X141304980Y-116246245D01*
X141399279Y-116288786D01*
X141695942Y-116533094D01*
X141879163Y-116864037D01*
X141947670Y-117241396D01*
X141947670Y-117241396D01*
X141947670Y-117241396D01*
G37*
X141947670Y-117241396D02*
X141900189Y-117624950D01*
X141735447Y-117974481D01*
X141461161Y-118243811D01*
X141319903Y-118317168D01*
X141131567Y-118367105D01*
X140860715Y-118398878D01*
X140471911Y-118417742D01*
X140250333Y-118423393D01*
X139853939Y-118427691D01*
X139515647Y-118423729D01*
X139273870Y-118412450D01*
X139170833Y-118396953D01*
X139081971Y-118279885D01*
X139073884Y-118101760D01*
X139141694Y-117947596D01*
X139198925Y-117907391D01*
X139337727Y-117885378D01*
X139601799Y-117868077D01*
X139947093Y-117857813D01*
X140172591Y-117856000D01*
X140654135Y-117840429D01*
X140990671Y-117786481D01*
X141204272Y-117683299D01*
X141317013Y-117520028D01*
X141350967Y-117285811D01*
X141351000Y-117276455D01*
X141284502Y-117012492D01*
X141079858Y-116825644D01*
X140729342Y-116710320D01*
X140527924Y-116680904D01*
X140252361Y-116645063D01*
X140105693Y-116599056D01*
X140047873Y-116521255D01*
X140038667Y-116416666D01*
X140049631Y-116302268D01*
X140107964Y-116235955D01*
X140251824Y-116201166D01*
X140519369Y-116181341D01*
X140589000Y-116177817D01*
X141005280Y-116181844D01*
X141304980Y-116246245D01*
X141399279Y-116288786D01*
X141695942Y-116533094D01*
X141879163Y-116864037D01*
X141947670Y-117241396D01*
X141947670Y-117241396D01*
G36*
X144144068Y-117332399D02*
X144124138Y-117855157D01*
X144063339Y-118218069D01*
X143962294Y-118419846D01*
X143821624Y-118459203D01*
X143653933Y-118347066D01*
X143600682Y-118201488D01*
X143566686Y-117894882D01*
X143552676Y-117434537D01*
X143552333Y-117335050D01*
X143543764Y-116937735D01*
X143520630Y-116585407D01*
X143486790Y-116323877D01*
X143458241Y-116218124D01*
X143314675Y-116048654D01*
X143080328Y-115901565D01*
X143034908Y-115882284D01*
X142813838Y-115771786D01*
X142719007Y-115645972D01*
X142705667Y-115540685D01*
X142769639Y-115364243D01*
X142937569Y-115280667D01*
X143173475Y-115287481D01*
X143441374Y-115382205D01*
X143705284Y-115562361D01*
X143759278Y-115613255D01*
X143910560Y-115789985D01*
X144017216Y-115989797D01*
X144086517Y-116245186D01*
X144125737Y-116588649D01*
X144142149Y-117052682D01*
X144144068Y-117332399D01*
X144144068Y-117332399D01*
X144144068Y-117332399D01*
G37*
X144144068Y-117332399D02*
X144124138Y-117855157D01*
X144063339Y-118218069D01*
X143962294Y-118419846D01*
X143821624Y-118459203D01*
X143653933Y-118347066D01*
X143600682Y-118201488D01*
X143566686Y-117894882D01*
X143552676Y-117434537D01*
X143552333Y-117335050D01*
X143543764Y-116937735D01*
X143520630Y-116585407D01*
X143486790Y-116323877D01*
X143458241Y-116218124D01*
X143314675Y-116048654D01*
X143080328Y-115901565D01*
X143034908Y-115882284D01*
X142813838Y-115771786D01*
X142719007Y-115645972D01*
X142705667Y-115540685D01*
X142769639Y-115364243D01*
X142937569Y-115280667D01*
X143173475Y-115287481D01*
X143441374Y-115382205D01*
X143705284Y-115562361D01*
X143759278Y-115613255D01*
X143910560Y-115789985D01*
X144017216Y-115989797D01*
X144086517Y-116245186D01*
X144125737Y-116588649D01*
X144142149Y-117052682D01*
X144144068Y-117332399D01*
X144144068Y-117332399D01*
G36*
X142800199Y-116966520D02*
X142776174Y-117263519D01*
X142724217Y-117473327D01*
X142663333Y-117547951D01*
X142471305Y-117578023D01*
X142350857Y-117481621D01*
X142292111Y-117244874D01*
X142282333Y-117012909D01*
X142247254Y-116517412D01*
X142139985Y-116167937D01*
X141957479Y-115955931D01*
X141893135Y-115920336D01*
X141715694Y-115877401D01*
X141420586Y-115844319D01*
X141059408Y-115826058D01*
X140892767Y-115824000D01*
X140501142Y-115829548D01*
X140236346Y-115851080D01*
X140056098Y-115895927D01*
X139918114Y-115971422D01*
X139880751Y-115999478D01*
X139701754Y-116228739D01*
X139664202Y-116491950D01*
X139771386Y-116738950D01*
X139828312Y-116798854D01*
X140051206Y-116913454D01*
X140400642Y-116984508D01*
X140484479Y-116992644D01*
X140848848Y-117049077D01*
X141049648Y-117146606D01*
X141087808Y-117286155D01*
X140964257Y-117468647D01*
X140963952Y-117468952D01*
X140766853Y-117566949D01*
X140444223Y-117584715D01*
X139984121Y-117522860D01*
X139967751Y-117519719D01*
X139588002Y-117373080D01*
X139309556Y-117121501D01*
X139136496Y-116798686D01*
X139072901Y-116438335D01*
X139122854Y-116074151D01*
X139290435Y-115739837D01*
X139579726Y-115469094D01*
X139710528Y-115395569D01*
X139893860Y-115316187D01*
X140077289Y-115265824D01*
X140302337Y-115239875D01*
X140610528Y-115233734D01*
X141043384Y-115242796D01*
X141078491Y-115243852D01*
X141571486Y-115266266D01*
X141929435Y-115306823D01*
X142186523Y-115377716D01*
X142376932Y-115491137D01*
X142534845Y-115659277D01*
X142632625Y-115798171D01*
X142712505Y-115998154D01*
X142767582Y-116289259D01*
X142797074Y-116626907D01*
X142800199Y-116966520D01*
X142800199Y-116966520D01*
X142800199Y-116966520D01*
G37*
X142800199Y-116966520D02*
X142776174Y-117263519D01*
X142724217Y-117473327D01*
X142663333Y-117547951D01*
X142471305Y-117578023D01*
X142350857Y-117481621D01*
X142292111Y-117244874D01*
X142282333Y-117012909D01*
X142247254Y-116517412D01*
X142139985Y-116167937D01*
X141957479Y-115955931D01*
X141893135Y-115920336D01*
X141715694Y-115877401D01*
X141420586Y-115844319D01*
X141059408Y-115826058D01*
X140892767Y-115824000D01*
X140501142Y-115829548D01*
X140236346Y-115851080D01*
X140056098Y-115895927D01*
X139918114Y-115971422D01*
X139880751Y-115999478D01*
X139701754Y-116228739D01*
X139664202Y-116491950D01*
X139771386Y-116738950D01*
X139828312Y-116798854D01*
X140051206Y-116913454D01*
X140400642Y-116984508D01*
X140484479Y-116992644D01*
X140848848Y-117049077D01*
X141049648Y-117146606D01*
X141087808Y-117286155D01*
X140964257Y-117468647D01*
X140963952Y-117468952D01*
X140766853Y-117566949D01*
X140444223Y-117584715D01*
X139984121Y-117522860D01*
X139967751Y-117519719D01*
X139588002Y-117373080D01*
X139309556Y-117121501D01*
X139136496Y-116798686D01*
X139072901Y-116438335D01*
X139122854Y-116074151D01*
X139290435Y-115739837D01*
X139579726Y-115469094D01*
X139710528Y-115395569D01*
X139893860Y-115316187D01*
X140077289Y-115265824D01*
X140302337Y-115239875D01*
X140610528Y-115233734D01*
X141043384Y-115242796D01*
X141078491Y-115243852D01*
X141571486Y-115266266D01*
X141929435Y-115306823D01*
X142186523Y-115377716D01*
X142376932Y-115491137D01*
X142534845Y-115659277D01*
X142632625Y-115798171D01*
X142712505Y-115998154D01*
X142767582Y-116289259D01*
X142797074Y-116626907D01*
X142800199Y-116966520D01*
X142800199Y-116966520D01*
D11*
X147029714Y-113592428D02*
X146267714Y-113592428D01*
X146267714Y-113411000D01*
X146304000Y-113302143D01*
X146376571Y-113229571D01*
X146449143Y-113193286D01*
X146594286Y-113157000D01*
X146703143Y-113157000D01*
X146848286Y-113193286D01*
X146920857Y-113229571D01*
X146993429Y-113302143D01*
X147029714Y-113411000D01*
X147029714Y-113592428D01*
X147029714Y-112431286D02*
X147029714Y-112866714D01*
X147029714Y-112649000D02*
X146267714Y-112649000D01*
X146376571Y-112721571D01*
X146449143Y-112794143D01*
X146485429Y-112866714D01*
X152239714Y-113592428D02*
X151477714Y-113592428D01*
X151477714Y-113411000D01*
X151514000Y-113302143D01*
X151586571Y-113229571D01*
X151659143Y-113193286D01*
X151804286Y-113157000D01*
X151913143Y-113157000D01*
X152058286Y-113193286D01*
X152130857Y-113229571D01*
X152203429Y-113302143D01*
X152239714Y-113411000D01*
X152239714Y-113592428D01*
X151477714Y-112903000D02*
X151477714Y-112431286D01*
X151768000Y-112685286D01*
X151768000Y-112576428D01*
X151804286Y-112503857D01*
X151840571Y-112467571D01*
X151913143Y-112431286D01*
X152094571Y-112431286D01*
X152167143Y-112467571D01*
X152203429Y-112503857D01*
X152239714Y-112576428D01*
X152239714Y-112794143D01*
X152203429Y-112866714D01*
X152167143Y-112903000D01*
X157189714Y-113592428D02*
X156427714Y-113592428D01*
X156427714Y-113411000D01*
X156464000Y-113302143D01*
X156536571Y-113229571D01*
X156609143Y-113193286D01*
X156754286Y-113157000D01*
X156863143Y-113157000D01*
X157008286Y-113193286D01*
X157080857Y-113229571D01*
X157153429Y-113302143D01*
X157189714Y-113411000D01*
X157189714Y-113592428D01*
X156681714Y-112503857D02*
X157189714Y-112503857D01*
X156391429Y-112685286D02*
X156935714Y-112866714D01*
X156935714Y-112395000D01*
X132787572Y-101944714D02*
X132787572Y-101182714D01*
X133077857Y-101182714D01*
X133150429Y-101219000D01*
X133186714Y-101255286D01*
X133223000Y-101327857D01*
X133223000Y-101436714D01*
X133186714Y-101509286D01*
X133150429Y-101545571D01*
X133077857Y-101581857D01*
X132787572Y-101581857D01*
X133948714Y-101944714D02*
X133513286Y-101944714D01*
X133731000Y-101944714D02*
X133731000Y-101182714D01*
X133658429Y-101291571D01*
X133585857Y-101364143D01*
X133513286Y-101400429D01*
X171522572Y-114644714D02*
X171522572Y-113882714D01*
X171812857Y-113882714D01*
X171885429Y-113919000D01*
X171921714Y-113955286D01*
X171958000Y-114027857D01*
X171958000Y-114136714D01*
X171921714Y-114209286D01*
X171885429Y-114245571D01*
X171812857Y-114281857D01*
X171522572Y-114281857D01*
X172248286Y-113955286D02*
X172284572Y-113919000D01*
X172357143Y-113882714D01*
X172538572Y-113882714D01*
X172611143Y-113919000D01*
X172647429Y-113955286D01*
X172683714Y-114027857D01*
X172683714Y-114100429D01*
X172647429Y-114209286D01*
X172212000Y-114644714D01*
X172683714Y-114644714D01*
X146122572Y-106389714D02*
X146122572Y-105627714D01*
X146412857Y-105627714D01*
X146485429Y-105664000D01*
X146521714Y-105700286D01*
X146558000Y-105772857D01*
X146558000Y-105881714D01*
X146521714Y-105954286D01*
X146485429Y-105990571D01*
X146412857Y-106026857D01*
X146122572Y-106026857D01*
X146812000Y-105627714D02*
X147283714Y-105627714D01*
X147029714Y-105918000D01*
X147138572Y-105918000D01*
X147211143Y-105954286D01*
X147247429Y-105990571D01*
X147283714Y-106063143D01*
X147283714Y-106244571D01*
X147247429Y-106317143D01*
X147211143Y-106353429D01*
X147138572Y-106389714D01*
X146920857Y-106389714D01*
X146848286Y-106353429D01*
X146812000Y-106317143D01*
X165172572Y-106389714D02*
X165172572Y-105627714D01*
X165462857Y-105627714D01*
X165535429Y-105664000D01*
X165571714Y-105700286D01*
X165608000Y-105772857D01*
X165608000Y-105881714D01*
X165571714Y-105954286D01*
X165535429Y-105990571D01*
X165462857Y-106026857D01*
X165172572Y-106026857D01*
X166261143Y-105881714D02*
X166261143Y-106389714D01*
X166079714Y-105591429D02*
X165898286Y-106135714D01*
X166370000Y-106135714D01*
X167712572Y-103849714D02*
X167712572Y-103087714D01*
X168002857Y-103087714D01*
X168075429Y-103124000D01*
X168111714Y-103160286D01*
X168148000Y-103232857D01*
X168148000Y-103341714D01*
X168111714Y-103414286D01*
X168075429Y-103450571D01*
X168002857Y-103486857D01*
X167712572Y-103486857D01*
X168837429Y-103087714D02*
X168474572Y-103087714D01*
X168438286Y-103450571D01*
X168474572Y-103414286D01*
X168547143Y-103378000D01*
X168728572Y-103378000D01*
X168801143Y-103414286D01*
X168837429Y-103450571D01*
X168873714Y-103523143D01*
X168873714Y-103704571D01*
X168837429Y-103777143D01*
X168801143Y-103813429D01*
X168728572Y-103849714D01*
X168547143Y-103849714D01*
X168474572Y-103813429D01*
X168438286Y-103777143D01*
X142947572Y-103849714D02*
X142947572Y-103087714D01*
X143237857Y-103087714D01*
X143310429Y-103124000D01*
X143346714Y-103160286D01*
X143383000Y-103232857D01*
X143383000Y-103341714D01*
X143346714Y-103414286D01*
X143310429Y-103450571D01*
X143237857Y-103486857D01*
X142947572Y-103486857D01*
X144036143Y-103087714D02*
X143891000Y-103087714D01*
X143818429Y-103124000D01*
X143782143Y-103160286D01*
X143709572Y-103269143D01*
X143673286Y-103414286D01*
X143673286Y-103704571D01*
X143709572Y-103777143D01*
X143745857Y-103813429D01*
X143818429Y-103849714D01*
X143963572Y-103849714D01*
X144036143Y-103813429D01*
X144072429Y-103777143D01*
X144108714Y-103704571D01*
X144108714Y-103523143D01*
X144072429Y-103450571D01*
X144036143Y-103414286D01*
X143963572Y-103378000D01*
X143818429Y-103378000D01*
X143745857Y-103414286D01*
X143709572Y-103450571D01*
X143673286Y-103523143D01*
M02*
