M48
;DRILL file {KiCad 4.0.0-rc1-stable} date 17/09/2017 11:41:14
;FORMAT={2:4/ absolute / inch / suppress leading zeros}
FMAT,2
INCH,TZ
T1C0.035
T2C0.043
T3C0.043
T4C0.047
T5C0.126
%
G90
G05
M72
T1
X65500Y-44250
X65500Y-45250
T2
X55250Y-39000
X56250Y-39000
X66750Y-39000
X67750Y-39000
T3
X58750Y-42500
X58750Y-46500
X60750Y-42500
X60750Y-46500
X62750Y-42500
X62750Y-46500
T4
X53750Y-41500
X53750Y-43500
X58500Y-39750
X60500Y-39750
X62500Y-39750
X64500Y-39750
X69000Y-41500
X69000Y-43500
T5
X52500Y-38500
X52500Y-46000
X70500Y-38500
X70500Y-46000
T0
M30
