G04 #@! TF.FileFunction,Copper,L1,Top,Signal*
%FSLAX46Y46*%
G04 Gerber Fmt 4.6, Leading zero omitted, Abs format (unit mm)*
G04 Created by KiCad (PCBNEW 4.0.0-rc1-stable) date 17/09/2017 11:41:04*
%MOMM*%
G01*
G04 APERTURE LIST*
%ADD10C,0.076200*%
%ADD11R,2.200000X2.200000*%
%ADD12O,2.200000X2.200000*%
%ADD13R,1.800000X1.800000*%
%ADD14C,1.800000*%
%ADD15C,2.000000*%
%ADD16O,1.998980X1.998980*%
%ADD17R,1.998980X1.998980*%
%ADD18C,1.219200*%
G04 APERTURE END LIST*
D10*
D11*
X149225000Y-107950000D03*
D12*
X149225000Y-118110000D03*
D13*
X166370000Y-112395000D03*
D14*
X166370000Y-114935000D03*
D11*
X154305000Y-118110000D03*
D12*
X154305000Y-107950000D03*
D11*
X159385000Y-107950000D03*
D12*
X159385000Y-118110000D03*
D15*
X136525000Y-105410000D03*
X136525000Y-110490000D03*
X175260000Y-110490000D03*
X175260000Y-105410000D03*
X153670000Y-100965000D03*
X148590000Y-100965000D03*
X163830000Y-100965000D03*
X158750000Y-100965000D03*
D16*
X172085000Y-99060000D03*
D17*
X169545000Y-99060000D03*
D16*
X140335000Y-99060000D03*
D17*
X142875000Y-99060000D03*
D18*
X149225000Y-107950000D02*
X154305000Y-107950000D01*
X154305000Y-118110000D02*
X159385000Y-118110000D01*
X149225000Y-118110000D02*
X149225000Y-116840000D01*
X150495000Y-115570000D02*
X165735000Y-115570000D01*
X149225000Y-116840000D02*
X150495000Y-115570000D01*
X165735000Y-115570000D02*
X166370000Y-114935000D01*
X136525000Y-105410000D02*
X141605000Y-110490000D01*
X146050000Y-118110000D02*
X149225000Y-118110000D01*
X141605000Y-113665000D02*
X146050000Y-118110000D01*
X141605000Y-110490000D02*
X141605000Y-113665000D01*
X140335000Y-99060000D02*
X136525000Y-102870000D01*
X136525000Y-102870000D02*
X136525000Y-105410000D01*
X175260000Y-105410000D02*
X175260000Y-102235000D01*
X175260000Y-102235000D02*
X172085000Y-99060000D01*
X166370000Y-112395000D02*
X173355000Y-105410000D01*
X173355000Y-105410000D02*
X175260000Y-105410000D01*
X159385000Y-107950000D02*
X156210000Y-104775000D01*
X152400000Y-104775000D02*
X148590000Y-100965000D01*
X156210000Y-104775000D02*
X152400000Y-104775000D01*
X159385000Y-107950000D02*
X161925000Y-107950000D01*
X161925000Y-107950000D02*
X166370000Y-112395000D01*
X153670000Y-100965000D02*
X158750000Y-100965000D01*
M02*
